<?xml version="1.0" encoding="utf-8"?>
<!-- Generator: Adobe Illustrator 18.1.0, SVG Export Plug-In . SVG Version: 6.00 Build 0)  -->
<svg version="1.1" id="图层_1" xmlns="http://www.w3.org/2000/svg" xmlns:xlink="http://www.w3.org/1999/xlink" x="0px" y="0px"
	 viewBox="0 0 40 40" enable-background="new 0 0 40 40" xml:space="preserve">
<path d="M23.5,22.6h15.1c0.7,0,1.4-0.7,1.4-1.4v-2.7c0-0.7-0.7-1.4-1.4-1.4H23.5c-0.6,0-0.9-0.3-0.9-0.9V1.1c0-0.7-0.7-1.4-1.4-1.4
	h-2.7c-0.7,0-1.4,0.7-1.4,1.4v15.1c0,0.6-0.3,0.9-0.9,0.9H1.1c-0.7,0-1.4,0.7-1.4,1.4v2.7c0,0.7,0.7,1.4,1.4,1.4h15.1
	c0.6,0,0.9,0.3,0.9,0.9v15c0,0.7,0.7,1.4,1.4,1.4h2.7c0.7,0,1.4-0.7,1.4-1.4v-15C22.5,22.9,22.9,22.6,23.5,22.6z"/>
</svg>
