<?xml version="1.0" encoding="utf-8"?>
<!-- Generator: Adobe Illustrator 18.1.0, SVG Export Plug-In . SVG Version: 6.00 Build 0)  -->
<svg version="1.1" id="图层_1" xmlns="http://www.w3.org/2000/svg" xmlns:xlink="http://www.w3.org/1999/xlink" x="0px" y="0px"
	 viewBox="80 -80 200 200" enable-background="new 80 -80 200 200" xml:space="preserve">
<path d="M279.8,40.7c1.1-42.5-32.3-77.8-74.8-79.1h-85.5l19.6-20.9c4.5-4.8,4.5-12.3,0-17.1c-4-4.4-10.8-4.8-15.3-0.8
	c-0.3,0.2-0.5,0.5-0.8,0.8L83.4-34.5c-2.3,2.5-3.6,5.8-3.4,9.2c-0.2,3.3,1,6.6,3.4,9L123,25.4c3.9,4.4,10.7,4.8,15.1,0.9
	c0.3-0.3,0.6-0.6,0.9-0.9c4.5-4.8,4.5-12.2,0-17l-19.4-20.5H205c29.2,1.6,51.5,26.4,50,55.6c-1.4,27-23,48.5-50,50h-87.3
	c-7,0.3-12.5,6.1-12.4,13.1v0.1c-0.2,7,5.3,12.9,12.3,13.1c0,0,0,0,0,0h87.4C247.6,118.5,281,83.1,279.8,40.7
	C279.8,40.7,279.8,40.7,279.8,40.7L279.8,40.7z"/>
</svg>
