<?xml version="1.0" encoding="utf-8"?>
<!-- Generator: Adobe Illustrator 18.1.0, SVG Export Plug-In . SVG Version: 6.00 Build 0)  -->
<svg version="1.1" id="图层_1" xmlns="http://www.w3.org/2000/svg" xmlns:xlink="http://www.w3.org/1999/xlink" x="0px" y="0px"
	 viewBox="80 -80 200 200" enable-background="new 80 -80 200 200" xml:space="preserve">
<path d="M183.9,48.4c-20.8,2.7-36-17-30.6-35.7c3.8-13.1,13.5-19.2,24.3-20.8C217-8.9,218.5,43.6,183.9,48.4 M245.8,31.5
	c4.9-39.3-18.1-63.1-41.2-72.6c-7.8-3.2-23.4-5.3-33.3-3.9v-19.6h14.1V-74h-70.6v9.4H129v44.3c-2.9,3.2-6.3,8.1-8.2,12.6
	c-7,16.1-8.6,35.8,0,55.7c5.3,12.2,13,19.7,23.1,27.1c-6.5,13.1-13.1,26.1-19.6,39.2h113c-6.5-13.1-13.1-26.1-19.6-39.2
	C230.9,64.6,241.1,54.6,245.8,31.5"/>
</svg>
