<?xml version="1.0" standalone="no"?><!DOCTYPE svg PUBLIC "-//W3C//DTD SVG 1.1//EN" "http://www.w3.org/Graphics/SVG/1.1/DTD/svg11.dtd"><svg t="1555492836923" class="icon" style="" viewBox="0 0 1024 1024" version="1.1" xmlns="http://www.w3.org/2000/svg" p-id="2959" xmlns:xlink="http://www.w3.org/1999/xlink" width="200" height="200"><defs><style type="text/css"></style></defs><path d="M821.5296 377.3952a334.95552 334.95552 0 0 1-101.3248 308.736l165.47328 286.72H138.24l152.69888-264.56576a335.2064 335.2064 0 1 1 470.74304-467.456v-165.6832h-53.8624V51.2h161.5872v23.94624h-47.87712V377.3952z m-54.1696 50.688a274.73408 274.73408 0 0 0-11.55584-67.84l-0.03072-0.10752a274.98496 274.98496 0 0 0-2.81088-8.576c-0.37888-1.12128-0.73728-2.24768-1.13152-3.35872a289.83808 289.83808 0 0 0-2.92864-7.79264l-1.536-3.87072c-1.024-2.49344-2.0736-4.9664-3.15904-7.41888q-0.86528-1.97632-1.77664-3.93216c-1.11616-2.42688-2.2528-4.83328-3.44064-7.2192-0.62464-1.25952-1.27488-2.50368-1.92-3.75296-1.24416-2.4064-2.49344-4.8128-3.80416-7.168-0.5888-1.06496-1.21344-2.10432-1.81248-3.15904a276.48 276.48 0 0 0-15.488-24.10496c-0.6656-0.92672-1.31072-1.87392-1.98656-2.79552-1.536-2.048-3.072-4.03456-4.63872-6.03648-0.97792-1.2544-1.9456-2.51904-2.94912-3.75808-1.536-1.8688-3.072-3.70176-4.608-5.5296a247.98208 247.98208 0 0 0-3.39456-3.9168q-2.31936-2.61632-4.70528-5.17632c-1.2288-1.32096-2.47808-2.62144-3.73248-3.9168-1.5872-1.6384-3.17952-3.26656-4.80768-4.864-1.3312-1.31072-2.69824-2.59072-4.06016-3.87072-1.61792-1.536-3.23072-3.072-4.88448-4.54656-1.47968-1.3312-3.00032-2.6112-4.51072-3.90656-1.60256-1.37728-3.18464-2.78528-4.82304-4.12672q-4.5056-3.70688-9.18528-7.2192c-1.50016-1.13152-3.072-2.19648-4.57728-3.29728-1.8432-1.3312-3.67616-2.66752-5.5552-3.95264-1.60768-1.1008-3.24608-2.1504-4.87936-3.21536a187.2896 187.2896 0 0 0-5.632-3.584c-1.65376-1.024-3.328-2.01728-5.00736-3.01056q-2.90304-1.7152-5.84704-3.36384a242.64704 242.64704 0 0 0-11.25888-5.93408c-1.65888-0.82432-3.31264-1.65376-4.98688-2.44736a209.63328 209.63328 0 0 0-6.84032-3.072c-1.536-0.68096-3.072-1.3824-4.608-2.048a265.61536 265.61536 0 0 0-8.86784-3.49696c-0.95744-0.36352-1.8944-0.75776-2.85696-1.11104q-5.87264-2.14528-11.8784-4.0192c-1.31072-0.41472-2.64704-0.768-3.968-1.16224-2.7648-0.8192-5.53472-1.62816-8.33536-2.36544-1.60256-0.41984-3.2256-0.79872-4.8384-1.19296-2.56-0.62464-5.12-1.2288-7.72608-1.78176a244.608 244.608 0 0 0-5.12-1.024q-3.84-0.7424-7.68-1.37728a251.22304 251.22304 0 0 0-13.21984-1.83296c-1.67936-0.19456-3.35872-0.39424-5.04832-0.55808a280.6528 280.6528 0 0 0-8.86272-0.67584c-1.44384-0.09216-2.87744-0.21504-4.3264-0.28672a280.48896 280.48896 0 0 0-13.312-0.33792A275.39456 275.39456 0 1 0 767.6672 440.32c0-4.096-0.11264-8.1664-0.3072-12.22656z m-274.98496 131.98848A119.73632 119.73632 0 1 1 612.06528 440.32a119.71584 119.71584 0 0 1-119.69024 119.76192z" p-id="2960"></path></svg>