<?xml version="1.0" encoding="utf-8"?>
<!-- Generator: Adobe Illustrator 18.1.0, SVG Export Plug-In . SVG Version: 6.00 Build 0)  -->
<svg version="1.1" id="图层_1" xmlns="http://www.w3.org/2000/svg" xmlns:xlink="http://www.w3.org/1999/xlink" x="0px" y="0px"
	 viewBox="0 0 40 40" enable-background="new 0 0 40 40" xml:space="preserve">
<path d="M0,38.6V1h40v37.6H0z M27.2,16.9h10v-6.5h-10V16.9z M2.8,35.7h10V29h-10L2.8,35.7L2.8,35.7z M2.8,26.2h10v-6.4h-10
	C2.8,19.8,2.8,26.2,2.8,26.2z M2.8,16.9h10v-6.5h-10L2.8,16.9L2.8,16.9z M15.8,35.7h8.6V29h-8.6L15.8,35.7L15.8,35.7z M15.8,26.2
	h8.6v-6.4h-8.6L15.8,26.2L15.8,26.2z M15.8,16.9h8.6v-6.5h-8.6L15.8,16.9L15.8,16.9z M27.2,35.7h10V29h-10V35.7z M27.2,26.2h10v-6.4
	h-10V26.2z"/>
</svg>
