<?xml version="1.0" encoding="utf-8"?>
<!-- Generator: Adobe Illustrator 18.1.0, SVG Export Plug-In . SVG Version: 6.00 Build 0)  -->
<svg version="1.1" id="图层_1" xmlns="http://www.w3.org/2000/svg" xmlns:xlink="http://www.w3.org/1999/xlink" x="0px" y="0px"
	 viewBox="80 -80 200 200" enable-background="new 80 -80 200 200" xml:space="preserve">
<path d="M204.1-63.7c23.2,2.3,41.9,16.3,45.9,40.3h-13.5l21.7,32.3L280-23.4h-15c-4-32.3-28.4-53.3-59.3-56.3
	c-4.3-0.3-8.2,3.3-8.2,8C197.7-67.7,200.5-64,204.1-63.7L204.1-63.7z M170.5-80H95c-4.3,0-7.6,3.7-7.6,8.3V0.3
	c0,4.7,3.4,8.3,7.6,8.3h75.5c4.3,0,7.6-3.7,7.6-8.3v-71.9C178.2-76.3,174.8-80,170.5-80L170.5-80z M265.3,30.9h-75.5
	c-4.3,0-7.6,3.7-7.6,8.3v72.3c0,4.7,3.3,8.3,7.6,8.3h75.5c4.3,0,7.6-3.7,7.6-8.3V39.2C272.9,34.6,269.3,30.9,265.3,30.9L265.3,30.9z
	 M258,103.5h-60.8V47.2H258V103.5L258,103.5z M155.8,103.2c-26-2.3-45.9-19.6-46.8-48.3h14.4l-21.7-32.3L80,54.9h14.4
	c0.6,37,26.6,60.9,59.9,64.3c4.3,0.3,8.3-3.3,8.3-8C162.6,107.2,159.7,103.8,155.8,103.2L155.8,103.2z"/>
</svg>
