<?xml version="1.0" standalone="no"?><!DOCTYPE svg PUBLIC "-//W3C//DTD SVG 1.1//EN" "http://www.w3.org/Graphics/SVG/1.1/DTD/svg11.dtd"><svg t="1555492959626" class="icon" style="" viewBox="0 0 1024 1024" version="1.1" xmlns="http://www.w3.org/2000/svg" p-id="4798" xmlns:xlink="http://www.w3.org/1999/xlink" width="200" height="200"><defs><style type="text/css"></style></defs><path d="M394.176 787.008a105.696 105.696 0 0 0-66.016-62.944 103.296 103.296 0 0 0-63.488 0 105.92 105.92 0 0 0-66.048 62.944 109.376 109.376 0 0 0-5.376 20.224 99.456 99.456 0 0 0-1.568 17.6l0.096 2.4c1.344 57.152 47.68 103.36 104.64 103.36 56.992 0 103.328-46.208 104.704-103.36l0.032-2.4c0-6.016-0.608-11.872-1.568-17.6a104.64 104.64 0 0 0-5.408-20.224zM1019.168 690.624v-150.112c0-116.16-75.968-176.192-79.168-178.688a19.744 19.744 0 0 0-12.16-4.128h-160.128a19.68 19.68 0 0 0-14.784 6.752v330.656a13.44 13.44 0 0 1-3.488 8.832h-1.632c0 0.512 0.096 0.864 0.224 1.376a13.632 13.632 0 0 1-8.416 3.104H359.264c7.968 4.48 15.392 9.728 22.24 15.648a132.544 132.544 0 0 1 40.704 62.944c1.984 6.496 3.328 13.344 4.16 20.224 0.832 5.728 1.376 11.552 1.376 17.6 0 0.736-0.096 1.632-0.16 2.4h292.512c-0.096-0.768-0.096-1.664-0.096-2.4 0-6.016 0.512-11.872 1.28-17.6a128 128 0 0 1 4.16-20.224 133.184 133.184 0 0 1 40.832-62.944h1.44c-0.512 0-0.832-0.096-1.344-0.192a129.728 129.728 0 0 1 58.208-28.768 126.816 126.816 0 0 1 53.536 0 131.2 131.2 0 0 1 58.304 28.96 133.376 133.376 0 0 1 40.768 62.944c1.888 6.496 3.232 13.344 4.096 20.224 0.864 5.728 1.376 11.552 1.376 17.6 0 0.736-0.128 1.632-0.128 2.4h21.76a19.936 19.936 0 0 0 19.936-20v-103.296a20.32 20.32 0 0 0-5.056-13.312z" p-id="4799"></path><path d="M949.12 787.008a105.664 105.664 0 0 0-66.048-62.944 103.36 103.36 0 0 0-63.456 0 105.728 105.728 0 0 0-73.024 100.768l0.096 2.4c1.376 57.152 47.68 103.36 104.64 103.36 57.024 0 103.36-46.208 104.672-103.36a20.768 20.768 0 0 0 0.192-2.4c0-6.016-0.672-11.872-1.664-17.6a104.64 104.64 0 0 0-5.408-20.224zM707.008 683.232v-1.536h19.328V300.128c0-1.024 0.384-1.952 0.576-2.912V238.272a19.968 19.968 0 0 0-19.904-20.16h-268.32c7.072 23.232 10.752 47.808 10.752 73.216 0 139.328-112.928 252.384-252.16 252.384a251.52 251.52 0 0 1-134.336-38.784v176.768h19.936v1.536h624.128zM211.392 724.064c6.784-5.952 14.24-11.2 22.208-15.648 2.976-1.568 6.048-3.008 9.184-4.48l1.312-0.608H103.392l-0.032 0.608v103.296c0 11.104 8.864 20 19.904 20h42.016c0-0.768-0.128-1.664-0.128-2.4 0-6.016 0.544-11.872 1.312-17.6 0.896-6.88 2.208-13.728 4.192-20.224A132.16 132.16 0 0 1 211.392 724.064z" p-id="4800"></path><path d="M100.992 448.288l23.392-24.768c10.592 6.016 25.344 10.592 32.512 13.952v35.136c0 11.072 11.68 20 22.752 20h39.968c11.072 0 22.752-8.96 22.752-20V437.44c7.104-3.36 21.92-8 32.512-13.952l24.064 24.768a19.648 19.648 0 0 0 27.936 0l28.128-28.32a20.096 20.096 0 0 0-0.096-28.32l-24.8-23.424c5.984-10.528 10.624-25.344 13.952-32.448h35.072c11.072 0 20-11.712 20-22.784V272.96c0-11.072-8.96-22.72-20-22.72h-35.072c-3.328-7.2-8-21.984-13.984-32.544l24.768-24.096a19.52 19.52 0 0 0 0-27.936l-28.256-28.128a20.032 20.032 0 0 0-28.288 0.096l-23.488 24.864c-10.528-5.984-25.344-10.656-32.448-13.952V113.472c0-11.104-11.712-20.032-22.752-20.032h-40c-11.072 0-22.752 8.96-22.752 20.032v35.072c-7.136 3.296-21.92 8.032-32.48 14.016l-24.096-24.8a19.52 19.52 0 0 0-27.904 0l-28.096 28.256a20 20 0 0 0 0.096 28.32l24.768 23.36c-5.952 10.624-10.624 25.408-13.952 32.576H20.192c-11.104 0-20.032 11.648-20.032 22.72v40c0 11.04 8.928 22.784 20.032 22.784H55.232c3.296 7.104 8 21.92 13.952 32.512l-24.736 24.096a19.584 19.584 0 0 0 0 27.936l28.256 28.128c7.776 7.744 20.48 7.712 28.288-0.16z m98.624-245.344a90.016 90.016 0 0 1 0 180.064 90.048 90.048 0 0 1 0-180.064z" p-id="4801"></path><path d="M165.152 344.672v-5.792h-5.76v5.792h5.76z m-11.488 0v-5.792h-5.728v5.792h5.728z m57.408-5.792v5.792h5.76v-5.792h-5.76z m11.488 0v5.792h5.76v-5.792h-5.76z m-45.92 5.792v-5.792h-5.728v5.792h5.728z m57.44-5.792v5.792h5.728v-5.792h-5.728z m11.456 0v5.792h5.728v-5.792h-5.728z m-57.408 5.792v-5.792h-5.76v5.792h5.76z m-11.488-97.6v-5.76h-5.728v5.76h5.728z m50.816 41.664a2.784 2.784 0 0 0-1.504-1.152v-0.064l-33.824-16a3.2 3.2 0 0 0-2.464 0.32 2.912 2.912 0 0 0-1.312 2.112h-0.032l-0.16 37.44h0.032c-0.096 0.64 0 1.28 0.352 1.856a3.296 3.296 0 0 0 1.792 1.28 2.88 2.88 0 0 0 2.176-0.384l34.016-21.376a2.88 2.88 0 0 0 1.28-1.888 2.784 2.784 0 0 0-0.352-2.144zM153.664 247.072v-5.76h-5.728v5.76h5.728z m-17.216-5.76v103.36a11.52 11.52 0 0 0 11.488 11.488h103.36a11.52 11.52 0 0 0 11.488-11.488v-103.36a11.456 11.456 0 0 0-11.488-11.456h-103.36a11.392 11.392 0 0 0-11.488 11.456z m120.576 91.84v11.52a5.792 5.792 0 0 1-5.728 5.792H202.496v-17.312h54.528z m-60.288 0v17.312H147.936a5.824 5.824 0 0 1-5.76-5.792v-11.52h54.56z m60.288-74.624v68.896H142.176V258.528h114.848z m-5.728-22.976a5.76 5.76 0 0 1 5.728 5.728v11.52H202.496v-17.248h48.8z m-54.56 0V252.8H142.176v-11.488a5.76 5.76 0 0 1 5.76-5.76h48.8z m-8.608 11.52v-5.76h-5.76v5.76h5.76z m-22.976 0v-5.76h-5.76v5.76h5.76z m45.92-5.76v5.76h5.76v-5.76h-5.76z m34.464 0v5.76h5.728v-5.76h-5.728z m-22.976 0v5.76h5.76v-5.76h-5.76z m11.52 0v5.76h5.728v-5.76h-5.728z" p-id="4802"></path></svg>