<?xml version="1.0" encoding="utf-8"?>
<!-- Generator: Adobe Illustrator 18.1.0, SVG Export Plug-In . SVG Version: 6.00 Build 0)  -->
<svg version="1.1" id="图层_1" xmlns="http://www.w3.org/2000/svg" xmlns:xlink="http://www.w3.org/1999/xlink" x="0px" y="0px"
	 viewBox="0 0 40 40" enable-background="new 0 0 40 40" xml:space="preserve">
<path d="M2.7,5.2h33.9c1.8,0,2.7,0.9,2.7,2.7v2.3c0,1.8-0.9,2.7-2.7,2.7H2.7C0.9,12.9,0,12,0,10.2V7.9C0,6.1,0.9,5.2,2.7,5.2z"/>
<path d="M26.3,5.6h-2.8V2.8h-7.7v2.8H13V2.8C13,1.3,14.2,0,15.8,0h7.7c1.5,0,2.8,1.3,2.8,2.8l0,0C26.3,2.8,26.3,5.6,26.3,5.6z
	 M6.3,10.5v25.9c0,1.5,1.3,2.8,2.8,2.8l0,0h21c1.5,0,2.8-1.3,2.8-2.8l0,0V10.5H6.3z M15.3,30.5c0,0.8-0.6,1.4-1.4,1.4
	c-0.8,0-1.4-0.6-1.4-1.4V17.9c0-0.8,0.6-1.4,1.4-1.4c0.8,0,1.4,0.6,1.4,1.4V30.5z M21.2,30.5c0,0.8-0.6,1.4-1.4,1.4
	c-0.8,0-1.4-0.6-1.4-1.4V17.9c0-0.8,0.6-1.4,1.4-1.4c0.8,0,1.4,0.6,1.4,1.4V30.5z M26.8,30.5c0,0.8-0.6,1.4-1.4,1.4S24,31.3,24,30.5
	V17.9c0-0.8,0.6-1.4,1.4-1.4s1.4,0.6,1.4,1.4l0,0V30.5z"/>
</svg>
