<?xml version="1.0" standalone="no"?><!DOCTYPE svg PUBLIC "-//W3C//DTD SVG 1.1//EN" "http://www.w3.org/Graphics/SVG/1.1/DTD/svg11.dtd"><svg t="1555493534281" class="icon" style="" viewBox="0 0 1025 1024" version="1.1" xmlns="http://www.w3.org/2000/svg" p-id="11585" xmlns:xlink="http://www.w3.org/1999/xlink" width="200.1953125" height="200"><defs><style type="text/css"></style></defs><path d="M512.574376 676.838326c-91.348862 0-165.395202-74.04884-165.395202-165.396452 0-91.342612 74.04759-165.405202 165.395202-165.405202 91.342612 0 165.391452 74.06259 165.391452 165.405202C677.964578 602.788236 603.916987 676.838326 512.574376 676.838326L512.574376 676.838326z" p-id="11586"></path><path d="M512.016875 0C229.23403 0 0 229.23403 0 512.016875 0 794.77597 229.23403 1024 512.016875 1024c282.764095 0 512.006875-229.22403 512.006875-511.983125C1024.025 229.23403 794.78097 0 512.016875 0zM487.398095 228.667779c6.542508-6.548758 15.742519-10.357513 25.000031-10.357513 9.257511 0 18.457523 3.808755 25.005031 10.357513 6.542508 6.542508 10.356263 15.746269 10.356263 25.000031 0 9.257511-3.813755 18.461273-10.356263 25.003781-6.547508 6.548758-15.747519 10.357513-25.005031 10.357513-9.257511 0-18.457523-3.808755-25.000031-10.357513-6.547508-6.542508-10.356263-15.746269-10.356263-25.003781C477.041832 244.414048 480.850587 235.210287 487.398095 228.667779zM279.815342 537.004406c-6.543758 6.546258-15.747519 10.356263-25.000031 10.356263-9.258761 0-18.457523-3.810005-25.005031-10.356263-6.548758-6.543758-10.357513-15.748769-10.357513-25.000031 0-9.258761 3.808755-18.458773 10.357513-25.005031 6.547508-6.548758 15.746269-10.357513 25.005031-10.357513 9.252511 0 18.456273 3.808755 25.000031 10.357513 6.547508 6.547508 10.356263 15.746269 10.356263 25.005031C290.171604 521.255636 286.36285 530.459398 279.815342 537.004406zM305.176623 304.292871c6.547508-6.548758 15.746269-10.357513 25.005031-10.357513 9.252511 0 18.456273 3.808755 25.000031 10.357513 6.547508 6.542508 10.356263 15.741269 10.356263 25.000031 0 9.257511-3.808755 18.456273-10.356263 25.003781-6.543758 6.548758-15.747519 10.357513-25.000031 10.357513-9.258761 0-18.457523-3.808755-25.005031-10.357513-6.548758-6.547508-10.357513-15.746269-10.357513-25.003781C294.81911 320.034141 298.627865 310.835379 305.176623 304.292871zM355.440434 718.825877c-6.543758 6.546258-15.747519 10.355013-25.005031 10.355013-9.253761 0-18.457523-3.808755-25.000031-10.355013-6.548758-6.543758-10.357513-15.748769-10.357513-25.000031 0-9.258761 3.808755-18.458773 10.357513-25.005031 6.542508-6.548758 15.746269-10.356263 25.000031-10.356263 9.257511 0 18.461273 3.807505 25.005031 10.356263 6.547508 6.546258 10.356263 15.746269 10.356263 25.005031C365.796697 703.077108 361.987942 712.280869 355.440434 718.825877zM538.560657 795.00597c-6.752508 6.752508-16.24502 10.683763-25.801281 10.683763-9.551262 0-19.047523-3.931255-25.801281-10.683763-6.752508-6.756258-10.687513-16.25002-10.687513-25.801281 0-9.556262 3.935005-19.047523 10.687513-25.800031 6.753758-6.758758 16.25002-10.690013 25.801281-10.690013 9.556262 0 19.047523 3.931255 25.801281 10.690013 6.757508 6.751258 10.688763 16.24377 10.688763 25.800031C549.24817 778.755951 545.318166 788.249712 538.560657 795.00597zM512.574376 702.048357c-105.262628 0-190.596483-85.347604-190.596483-190.606483 0-105.268879 85.337604-190.600233 190.596483-190.600233 105.278879 0 190.600233 85.331354 190.600233 190.600233C703.174608 616.709503 617.842004 702.048357 512.574376 702.048357zM719.980879 718.579627c-6.542508 6.548758-15.742519 10.356263-25.000031 10.356263s-18.457523-3.807505-25.005031-10.356263c-6.542508-6.542508-10.356263-15.741269-10.356263-25.000031 0-9.257511 3.813755-18.456273 10.356263-25.005031 6.547508-6.542508 15.747519-10.356263 25.005031-10.356263s18.457523 3.813755 25.000031 10.356263c6.547508 6.548758 10.356263 15.747519 10.356263 25.005031C730.338392 702.839608 726.529637 712.037119 719.980879 718.579627zM720.51338 354.037932c-14.247517 13.818767-37.343796 13.808767-51.591313 0-14.267517-13.807517-14.267517-36.200044 0-50.003811 14.247517-13.808767 37.348796-13.808767 51.591313 0C734.770897 317.837888 734.770897 340.230415 720.51338 354.037932zM795.342221 536.255655c-6.542508 6.542508-15.742519 10.351263-24.995031 10.351263-9.257511 0-18.457523-3.808755-25.000031-10.351263-6.542508-6.546258-10.351263-15.742519-10.351263-25.000031 0-9.252511 3.808755-18.452523 10.351263-25.000031 6.542508-6.542508 15.742519-10.351263 25.000031-10.351263 9.252511 0 18.452523 3.808755 24.995031 10.351263 6.547508 6.547508 10.356263 15.747519 10.356263 25.000031C805.699734 520.513135 801.890979 529.709397 795.342221 536.255655z" p-id="11587"></path><path d="M512.016875 999.03622" p-id="11588"></path></svg>