<?xml version="1.0" encoding="utf-8"?>
<!-- Generator: Adobe Illustrator 18.1.0, SVG Export Plug-In . SVG Version: 6.00 Build 0)  -->
<svg version="1.1" id="图层_1" xmlns="http://www.w3.org/2000/svg" xmlns:xlink="http://www.w3.org/1999/xlink" x="0px" y="0px"
	 viewBox="0 0 40 40" enable-background="new 0 0 40 40" xml:space="preserve">
<path d="M7.5,3.7c-0.7,0-1.3-0.6-1.3-1.3s0.6-1.3,1.3-1.3h5c0.7,0,1.3,0.6,1.3,1.3s-0.6,1.3-1.3,1.3H7.5z M17.5,3.7
	c-0.7,0-1.3-0.6-1.3-1.3s0.6-1.3,1.3-1.3h5c0.7,0,1.3,0.6,1.3,1.3s-0.6,1.3-1.3,1.3H17.5z M27.5,3.7c-0.7,0-1.3-0.6-1.3-1.3
	s0.6-1.3,1.3-1.3H35c0.7,0,1.3,0.6,1.3,1.3S35.7,3.7,35,3.7H27.5z M35.8,5.6c-0.4-0.6-0.2-1.4,0.4-1.7c0.6-0.4,1.4-0.2,1.7,0.4
	c0,0,0,0.1,0.1,0.1c0.5,0.9,0.8,2,0.8,3.1v2.3c0,0.7-0.6,1.3-1.3,1.3s-1.3-0.6-1.3-1.3V7.5C36.3,6.8,36.1,6.2,35.8,5.6z M36.3,14.8
	c0-0.7,0.6-1.3,1.3-1.3s1.3,0.6,1.3,1.3v5c0,0.7-0.6,1.3-1.3,1.3s-1.3-0.6-1.3-1.3V14.8z M36.3,24.8c0-0.7,0.6-1.3,1.3-1.3
	s1.3,0.6,1.3,1.3v5c0,0.7-0.6,1.3-1.3,1.3s-1.3-0.6-1.3-1.3V24.8z M35.8,34.2c0.3-0.6,1.1-0.9,1.7-0.5c0.6,0.3,0.9,1.1,0.5,1.7l0,0
	c-1,2-3,3.3-5.3,3.4c-0.7,0-1.3-0.5-1.3-1.2c0-0.7,0.5-1.3,1.2-1.3C34,36.2,35.2,35.4,35.8,34.2z M27.8,36.3c0.7,0,1.3,0.6,1.3,1.3
	s-0.6,1.3-1.3,1.3h-5c-0.7,0-1.3-0.6-1.3-1.3s0.6-1.3,1.3-1.3H27.8z M17.8,36.3c0.7,0,1.3,0.6,1.3,1.3s-0.6,1.3-1.3,1.3h-5
	c-0.7,0-1.3-0.6-1.3-1.3s0.6-1.3,1.3-1.3H17.8z M7.8,36.3c0.7,0,1.3,0.6,1.3,1.3s-0.6,1.3-1.3,1.3H7.5c-2.1,0-4-1-5.2-2.8
	c-0.4-0.6-0.2-1.4,0.4-1.7c0.6-0.4,1.3-0.2,1.7,0.3c0.7,1,1.9,1.6,3.1,1.6H7.8L7.8,36.3z M3.8,30.5c0,0.7-0.6,1.3-1.3,1.3
	s-1.3-0.6-1.3-1.3v-5c0-0.7,0.6-1.3,1.3-1.3s1.3,0.6,1.3,1.3V30.5z M3.8,20.5c0,0.7-0.6,1.3-1.3,1.3s-1.3-0.6-1.3-1.3v-5
	c0-0.7,0.6-1.3,1.3-1.3s1.3,0.6,1.3,1.3V20.5z M3.8,10.5c0,0.7-0.6,1.3-1.3,1.3s-1.3-0.6-1.3-1.3v-3c0-0.9,0.2-1.7,0.5-2.5
	c0.3-0.6,1-0.9,1.6-0.6C4,4.6,4.3,5.4,4,6l0,0C3.8,6.5,3.7,7,3.7,7.5L3.8,10.5L3.8,10.5z M7,3.8C6.3,3.9,5.7,3.4,5.6,2.7
	C5.5,2,6,1.4,6.7,1.3c0.3,0,0.5-0.1,0.8-0.1h0c0.7,0,1.3,0.6,1.3,1.2c0,0.7-0.6,1.3-1.2,1.3h0C7.3,3.7,7.2,3.8,7,3.8z M20,25
	c-2.8,0-5-2.2-5-5s2.2-5,5-5s5,2.2,5,5S22.8,25,20,25z"/>
</svg>
