<?xml version="1.0" encoding="utf-8"?>
<!-- Generator: Adobe Illustrator 18.1.0, SVG Export Plug-In . SVG Version: 6.00 Build 0)  -->
<svg version="1.1" id="图层_1" xmlns="http://www.w3.org/2000/svg" xmlns:xlink="http://www.w3.org/1999/xlink" x="0px" y="0px"
	 viewBox="0 0 40 40" enable-background="new 0 0 40 40" xml:space="preserve">
<path d="M16.5,8.4H30l-2.8-2.8c-1-1-1-2.5,0-3.5c1-1,2.5-1,3.5,0l7,7c1,1,1,2.5,0,3.5l-7,7c-1,1-2.5,1-3.5,0c-1-1-1-2.5,0-3.5
	l2.8-2.8H16.5c-5.5,0-10,4.5-10,10.1c0,5.5,4.5,10,10.1,10h15.1c1.5,0,2.5,1,2.5,2.5c0,1.5-1,2.5-2.5,2.5H16.5
	c-8.3,0-15.1-6.8-15.1-15.1C1.4,15.2,8.2,8.4,16.5,8.4"/>
</svg>
