<?xml version="1.0" encoding="utf-8"?>
<!-- Generator: Adobe Illustrator 18.1.0, SVG Export Plug-In . SVG Version: 6.00 Build 0)  -->
<svg version="1.1" id="图层_1" xmlns="http://www.w3.org/2000/svg" xmlns:xlink="http://www.w3.org/1999/xlink" x="0px" y="0px"
	 viewBox="80 -80 200 200" enable-background="new 80 -80 200 200" xml:space="preserve">
<path d="M198.8-38.1H131l13.8-13.8c5-5,5-12.6,0-17.6c-5-5-12.6-5-17.6,0L92-34.3c-5,5-5,12.6,0,17.6l35.2,35.2c5,5,12.6,5,17.6,0
	c5-5,5-12.6,0-17.6L131-13h67.8C226.4-13,249,9.6,249,37.3c0,27.6-22.6,50.2-50.3,50.2h-75.4c-7.5,0-12.6,5-12.6,12.6
	c0,7.5,5,12.6,12.6,12.6h75.4c41.5,0,75.4-33.9,75.4-75.4C274.2-4.2,240.3-38.1,198.8-38.1"/>
</svg>
