<?xml version="1.0" standalone="no"?><!DOCTYPE svg PUBLIC "-//W3C//DTD SVG 1.1//EN" "http://www.w3.org/Graphics/SVG/1.1/DTD/svg11.dtd"><svg t="1555493342671" class="icon" style="" viewBox="0 0 1024 1024" version="1.1" xmlns="http://www.w3.org/2000/svg" p-id="9853" xmlns:xlink="http://www.w3.org/1999/xlink" width="200" height="200"><defs><style type="text/css"></style></defs><path d="M512.975376 502.715868m-494.479362 0a494.479362 494.479362 0 1 0 988.958724 0 494.479362 494.479362 0 1 0-988.958724 0Z" fill="#E9EAEB" p-id="9854"></path><path d="M989.825725 833.548861V618.460453a62.929796 62.929796 0 0 0-62.713046-62.713046h-43.350032a35.330276 35.330276 0 0 0-25.432018 10.765258l-67.62605 70.010301-65.603048-98.476822H301.065971l-65.603049 98.404572-67.626049-70.010301a35.330276 35.330276 0 0 0-25.432019-10.765258h-43.350031A62.929796 62.929796 0 0 0 36.125026 618.460453v215.088408a84.315812 84.315812 0 0 0 29.622522 63.291046L36.125026 944.163692V997.05073h953.700699v-53.031539l-29.622522-47.396034a84.315812 84.315812 0 0 0 29.622522-63.074296z" fill="#FFFFFF" p-id="9855"></path><path d="M654.296479 538.046144V464.64009c0-56.066041-98.982572-84.966062-150.13561-84.966062S354.025259 408.574049 354.025259 464.64009v73.406054" fill="#A3D4FF" p-id="9856"></path><path d="M671.925492 538.046144h-35.330276V464.64009c0-41.11028-86.700064-67.337049-132.434347-67.337049s-132.434347 26.226769-132.434347 67.337049v73.406054h-35.330276V464.64009c0-71.672052 111.120581-102.667325 167.764623-102.667325S671.925492 392.968038 671.925492 464.64009zM956.37395 921.766175l-18.423763-30.128272a68.63755 68.63755 0 0 0 34.246525-57.800042V618.460453a45.156283 45.156283 0 0 0-45.084033-45.084033h-43.350032a17.773513 17.773513 0 0 0-12.716009 5.418754L773.725817 679.150497H681.895999a46.529034 46.529034 0 0 0 9.970508 24.348268 38.653778 38.653778 0 0 0 30.634022 11.126508h95.00882l81.93156-83.01531 25.359768 24.781768-92.696818 93.563818H722.500529a72.250053 72.250053 0 0 1-57.005292-22.975517c-23.192267-26.082269-19.507514-63.218796-19.001763-67.409299l1.878501-15.606011H758.625556l86.700063-89.806816a53.248289 53.248289 0 0 1 38.075778-16.184012h43.350032a80.486559 80.486559 0 0 1 80.703309 80.486559v215.088408a103.678826 103.678826 0 0 1-51.080788 88.217314z" fill="#2A5082" p-id="9857"></path><path d="M883.834897 502.715868c39.448529 0 70.660552-33.885275 70.660552-75.645805v-25.287519c0-41.760531-31.212023-75.645805-70.660552-75.645805s-70.660552 33.885275-70.660551 75.645805v25.215269c0.07225 41.832781 31.284273 75.718055 70.660551 75.718055z" fill="#FFFFFF" p-id="9858"></path><path d="M883.834897 520.200381c-48.696536 0-88.289565-41.905031-88.289564-93.347068v-25.070769c0-51.442038 39.593029-93.347068 88.289564-93.347068s88.289565 41.905031 88.289565 93.347068v25.215269c0.07225 51.514288-39.593029 93.202568-88.289565 93.202568z m0-176.579129c-28.900021 0-52.959289 26.010019-52.959288 57.800042v25.576519c0 32.006773 23.770267 57.800042 52.959288 57.800042s52.959289-26.010019 52.959289-57.800042v-25.215269c0.07225-32.006773-23.698017-58.016792-52.959289-58.016792zM69.649051 921.766175a103.678826 103.678826 0 0 1-51.080787-88.217314V618.460453a80.486559 80.486559 0 0 1 80.342058-80.414309h43.350032A53.248289 53.248289 0 0 1 180.625132 554.230156l86.700064 89.734566h110.542581l1.878501 15.606011c0.50575 4.118253 4.190503 41.32703-19.001764 67.409299A72.250053 72.250053 0 0 1 303.450222 749.955549H193.919142L101.583574 656.391731l25.143019-24.781768 81.93156 83.01531H303.450222a38.653778 38.653778 0 0 0 30.489523-10.982008A46.456784 46.456784 0 0 0 344.127002 679.150497H252.297185L155.120864 578.722924a17.773513 17.773513 0 0 0-12.71601-5.418754h-43.350031a45.156283 45.156283 0 0 0-45.228534 45.156283v215.088408a68.63755 68.63755 0 0 0 34.246526 57.800042z" fill="#2A5082" p-id="9859"></path><path d="M1007.454738 1014.824243H18.496014v-75.718055l124.12559-198.543146 29.911522 18.712764-118.706837 190.017639v30.200522h918.370423v-30.200522l-118.779087-190.017639 29.983772-18.712764 124.053341 198.543146v75.718055zM780.878572 653.790729l-65.386298-98.115572H310.530727l-65.386297 98.115572-29.405772-19.579764 75.862556-113.866084h442.748324l75.934805 113.866084-29.405771 19.579764z" fill="#2A5082" p-id="9860"></path><path d="M142.115854 502.715868c-39.448529 0-70.660552-33.885275-70.660552-75.645805v-25.287519c0-41.760531 31.212023-75.645805 70.660552-75.645805s70.660552 33.885275 70.660552 75.645805v25.215269c0 41.832781-31.212023 75.718055-70.660552 75.718055z" fill="#FFFFFF" p-id="9861"></path><path d="M142.115854 520.200381c-48.624286 0-88.289565-41.688281-88.289565-93.202568v-25.215269c0-51.442038 39.593029-93.347068 88.289565-93.347068s88.289565 41.905031 88.289565 93.347068v25.215269c0 51.514288-39.593029 93.202568-88.289565 93.202568z m0-176.579129c-28.900021 0-52.959289 26.010019-52.959289 57.800042v25.576519c0 32.006773 23.770267 57.800042 52.959289 57.800042s52.959289-26.010019 52.959289-57.800042v-25.215269c0-32.006773-23.698017-58.016792-52.959289-58.016792z" fill="#2A5082" p-id="9862"></path><path d="M512.975376 326.136739c39.448529 0 70.660552-33.885275 70.660551-75.645806v-25.287518c0-41.760531-31.212023-75.645805-70.660551-75.645805s-70.660552 33.885275-70.660552 75.645805v25.215268c0.07225 41.832781 31.212023 75.718055 70.660552 75.718056z" fill="#FFFFFF" p-id="9863"></path><path d="M512.975376 343.765752c-48.696536 0-88.289565-41.905031-88.289565-93.347069v-25.215268c0-51.803288 39.665279-93.347068 88.289565-93.347068S601.33719 173.400127 601.33719 225.203415v25.215268c0 51.442038-39.665279 93.347068-88.361814 93.347069z m0-176.57913c-28.900021 0-52.959289 26.010019-52.959289 57.800043v25.215268c0 32.006773 23.770267 57.800042 52.959289 57.800043s52.959289-26.010019 52.959289-57.800043v-24.998518c0.07225-32.006773-24.059268-58.016792-52.959289-58.016793z" fill="#2A5082" p-id="9864"></path></svg>