<?xml version="1.0" encoding="utf-8"?>
<!-- Generator: Adobe Illustrator 18.1.0, SVG Export Plug-In . SVG Version: 6.00 Build 0)  -->
<svg version="1.1" id="图层_1" xmlns="http://www.w3.org/2000/svg" xmlns:xlink="http://www.w3.org/1999/xlink" x="0px" y="0px"
	 viewBox="-3 5 32 32" enable-background="new -3 5 32 32" xml:space="preserve">
<path d="M10.5,37c-0.1,0-0.3,0-0.4-0.1c-0.4-0.2-0.6-0.5-0.6-1V17.4L-0.8,6.8C-1.1,6.5-1.2,6-1,5.6C-0.8,5.3-0.4,5,0,5h26
	c0.4,0,0.8,0.3,1,0.6c0.2,0.4,0.1,0.8-0.2,1.2L16.6,17.4v14.3c0,0.3-0.1,0.6-0.4,0.8l-5,4.3C11,36.9,10.8,37,10.5,37z"/>
</svg>
