<?xml version="1.0" encoding="utf-8"?>
<!-- Generator: Adobe Illustrator 18.1.0, SVG Export Plug-In . SVG Version: 6.00 Build 0)  -->
<svg version="1.1" id="图层_1" xmlns="http://www.w3.org/2000/svg" xmlns:xlink="http://www.w3.org/1999/xlink" x="0px" y="0px"
	 viewBox="80 -80 200 200" enable-background="new 80 -80 200 200" xml:space="preserve">
<path d="M231.4,46.3c-2.6,0-3.8,3.1-2,5l7.8,7.8c-10.1,13.5-24.8,23.3-41.7,27.2V21.8h19.4c3.5,0,6.3-2.8,6.3-6.3V-2.3
	c0-3.5-2.8-6.3-6.3-6.3h-19.4v-16.7c9.8-5.9,16-17.4,13.9-30.2c-2.1-12.8-12.8-23-25.7-24.4c-17.8-2-32.9,11.9-32.9,29.3
	c0,10.7,5.8,20.1,14.3,25.3v16.7H144c-3.5,0-6.3,2.8-6.3,6.3v17.8c0,3.5,2.8,6.3,6.3,6.3h21.1v65.1c-17.3-3.3-32.4-12.8-43-25.9
	l8.3-8.3c1.8-1.8,0.5-4.9-2-5l-17.9-0.2l-21.1-0.3c-2.1,0-3.8,1.7-3.8,3.8L85.9,72l0.2,17.9c0,2.6,3.1,3.8,5,2l8.7-8.7
	c19.2,22.5,47.8,36.8,79.6,36.8c32.5,0,61.5-14.8,80.7-38l8.6,8.6c1.8,1.8,4.9,0.5,5-2l0.4-39c0-2.1-1.7-3.8-3.8-3.8L231.4,46.3
	L231.4,46.3z M180.9-58.9c4.6,0,8.4,3.8,8.4,8.4s-3.8,8.4-8.4,8.4c-4.6,0-8.4-3.8-8.4-8.4S176.3-58.9,180.9-58.9z"/>
</svg>
