<?xml version="1.0" standalone="no"?><!DOCTYPE svg PUBLIC "-//W3C//DTD SVG 1.1//EN" "http://www.w3.org/Graphics/SVG/1.1/DTD/svg11.dtd"><svg t="1555492431880" class="icon" style="" viewBox="0 0 1024 1024" version="1.1" xmlns="http://www.w3.org/2000/svg" p-id="2959" xmlns:xlink="http://www.w3.org/1999/xlink" width="200" height="200"><defs><style type="text/css"></style></defs><path d="M293.1875 592.04375l-7.875 7.93125c-36 36-180 179.38125-188.4375 188.4375-9.5625 10.125-2.8125 23.0625-2.8125 23.0625l52.875 53.4375c9.5625 8.38125 20.8125-0.61875 20.8125-0.61875l190.6875-190.125 7.875-7.875c-54.5625-16.875-73.125-74.25-73.125-74.25z m241.875-93.9375l-0.5625 0.5625-45 44.4375-32.625 32.625-59.625-15.69375-15.75-59.68125 78.75-76.5v-0.5625a121.21875 121.21875 0 0 0-160.875 114.1875c0 2.8125 0 6.1875 0.5625 9 4.5 63 56.8125 112.5 120.9375 112.5 52.3125 0 96.75-33.80625 113.625-80.4375 5.0625-12.9375 7.3125-27 7.3125-41.0625 0-12.9375-2.25-26.4375-6.75-39.375z" p-id="2960"></path><path d="M381.5 313.60625v36.5625H298.25v-87.1875h41.0625v-107.4375H62v107.4375h36c0 38.25 0.5625 121.5-0.5625 175.5-1.125 71.4375 64.6875 101.8125 99.5625 108h75.375v-6.75c0-17.71875 3.6-34.48125 9.28125-50.23125H222.48125l-0.28125 0.73125h-19.125c-12.2625-3.15-49.95-15.75-49.3875-50.56875 0.9-42.80625 0.73125-103.78125 0.61875-146.7l-0.05625-29.98125v-51.1875H242V403.38125h120.09375a148.275 148.275 0 0 1 58.78125-12.15c24.4125 0 47.08125 6.13125 67.66875 17.04375l-19.85625 33.6375-56.025 54.39375 11.19375 42.46875 36.675 9.61875 28.96875-26.2125V313.60625H381.5zM926.225 641.9375c-0.28125-38.1375-0.7875-121.5 0.16875-175.66875 1.18125-71.49375-64.575-101.7-99.5625-107.6625l-184.55625-0.28125v-44.4375H534.725v100.74375h56.25v-0.16875l51.24375 0.05625 35.775 0.05625h117.05625v0.16875l25.9875 0.05625c11.98125 2.98125 49.78125 15.1875 49.1625 50.45625-0.675 39.2625-0.73125 98.83125-0.16875 177.01875l0.39375 51.01875h-88.70625V498.8375H562.45625c3.825 13.05 6.35625 26.6625 6.35625 40.89375 0 18-3.375 35.4375-9 51.1875h82.4625v-36.45h83.1375v87.46875h-40.5v107.6625H962V641.9375h-35.775z" p-id="2961"></path></svg>