<?xml version="1.0" encoding="utf-8"?>
<!-- Generator: Adobe Illustrator 18.1.0, SVG Export Plug-In . SVG Version: 6.00 Build 0)  -->
<svg version="1.1" id="图层_1" xmlns="http://www.w3.org/2000/svg" xmlns:xlink="http://www.w3.org/1999/xlink" x="0px" y="0px"
	 viewBox="80 -80 200 200" enable-background="new 80 -80 200 200" xml:space="preserve">
<path d="M224.5-14.5v-3.1h-0.2c-2.8-29.6-28.4-36.2-43.7-37.5v-0.1h-1.7c-5.7-0.4-9.5,0-9.5,0h-32.3v-19.5H102v16.1h21.4v73.3H102
	V31h35.1V11.3h13.5c3.6,0,4.7,4.1,5,7.6v67.5h68.9V-8.8C224.6-10.8,224.6-12.6,224.5-14.5L224.5-14.5z M127.1,92.4h75.8v9.2h-75.8
	V92.4L127.1,92.4z M181.4,105.2h75.8v9.2h-75.8V105.2L181.4,105.2z"/>
</svg>
