<?xml version="1.0" encoding="utf-8"?>
<!-- Generator: Adobe Illustrator 18.1.0, SVG Export Plug-In . SVG Version: 6.00 Build 0)  -->
<svg version="1.1" id="图层_1" xmlns="http://www.w3.org/2000/svg" xmlns:xlink="http://www.w3.org/1999/xlink" x="0px" y="0px"
	 viewBox="0 0 40 40" enable-background="new 0 0 40 40" xml:space="preserve">
<path d="M25.3,14.7c0.8,0.8,2.1,0.8,3,0l7.6-7.5v6c0,0.9,0.7,1.6,1.6,1.6h1.1c0.9,0,1.6-0.6,1.6-1.3v-11H40l0.1-0.8
	c0-0.5-0.1-0.8-0.3-1.1c-0.2-0.2-0.7-0.5-1.1-0.5h-0.8l0,0L26.9,0c-0.9,0-1.6,0.8-1.6,1.6v1.1c0.1,1,0.9,1.6,1.8,1.6h5.8l-7.4,7.5
	C24.4,12.5,24.4,13.8,25.3,14.7L25.3,14.7L25.3,14.7z M14.8,25.4c-0.8-0.8-2.1-0.8-3,0l-7.6,7.4v-5.9c0-0.9-0.7-1.6-1.6-1.6H1.6
	c-0.9,0-1.6,0.6-1.6,1.3v10.9h0.1L0,38.4c0,0.5,0.1,0.8,0.3,1.1C0.5,39.7,1,40,1.4,40h0.8l0,0l11,0.1c0.9,0,1.6-0.8,1.6-1.6v-1.1
	c-0.1-1-0.9-1.6-1.8-1.6H7.2l7.6-7.5C15.6,27.6,15.6,26.3,14.8,25.4L14.8,25.4L14.8,25.4z M40,37.7V26.8c0-0.9-0.8-1.3-1.6-1.3h-1.1
	c-0.9,0-1.6,0.8-1.6,1.6v5.9l-7.6-7.4c-0.8-0.8-2.1-0.8-3,0c-0.8,0.8-0.8,2.1,0,3l7.6,7.4H27c-0.9,0-1.7,0.6-1.8,1.6v1.1
	c0,0.9,0.8,1.6,1.6,1.6L37.6,40l0,0h0.8c0.5,0,0.8-0.1,1.1-0.5c0.2-0.2,0.3-0.7,0.3-1.1L40,37.7C39.9,37.7,40,37.7,40,37.7L40,37.7
	L40,37.7z M7.3,4.3h5.8c0.9,0,1.7-0.6,1.8-1.6V1.6c0-0.9-0.8-1.6-1.6-1.6l-11,0.1l0,0H1.6c-0.5,0-0.8,0.1-1.1,0.5
	C0.2,0.8,0.1,1.3,0.1,1.7l0.1,0.8H0.1v11c0,0.9,0.7,1.3,1.6,1.3h1.1c0.9,0,1.6-0.7,1.6-1.6v-6l7.6,7.5c0.8,0.8,2.1,0.8,3,0
	c0.8-0.8,0.8-2.1,0-3L7.3,4.3L7.3,4.3L7.3,4.3z"/>
</svg>
