<?xml version="1.0" encoding="utf-8"?>
<!-- Generator: Adobe Illustrator 18.1.0, SVG Export Plug-In . SVG Version: 6.00 Build 0)  -->
<svg version="1.1" id="图层_1" xmlns="http://www.w3.org/2000/svg" xmlns:xlink="http://www.w3.org/1999/xlink" x="0px" y="0px"
	 viewBox="80 -80 200 200" enable-background="new 80 -80 200 200" xml:space="preserve">
<path d="M257.3,106.7h-62.5c-4.4,0-7.8-3.4-7.8-7.8V36.4c0-4.4,3.4-7.8,7.8-7.8h62.5c4.4,0,7.8,3.4,7.8,7.8v62.5
	C265.2,103.3,261.7,106.7,257.3,106.7z M251.4,6.9l-18.9-19.1c-4.5,3-9.8,4.8-15.8,4.8c-15.5,0-28.1-12.7-28.1-28.1
	s12.7-28.1,28.1-28.1s28.1,12.7,28.1,28.1c0,4.5-1.1,8.9-3.1,12.8L261.4-3c2.8,2.8,2.8,7.2,0,10C258.6,9.7,254.2,9.7,251.4,6.9z
	 M216.7-49.5c-7.8,0-14.1,6.3-14.1,14.1s6.3,14.1,14.1,14.1s14.1-6.3,14.1-14.1S224.5-49.5,216.7-49.5z M163.6,106.7h-62.5
	c-4.4,0-7.8-3.4-7.8-7.8V36.4c0-4.4,3.4-7.8,7.8-7.8h62.5c4.4,0,7.8,3.4,7.8,7.8v62.5C171.4,103.3,168,106.7,163.6,106.7z M163.6,13
	h-62.5c-4.4,0-7.8-3.4-7.8-7.8v-62.5c0-4.4,3.4-7.8,7.8-7.8h62.5c4.4,0,7.8,3.4,7.8,7.8V5.2C171.4,9.5,168,13,163.6,13z"/>
</svg>
