<?xml version="1.0" encoding="utf-8"?>
<!-- Generator: Adobe Illustrator 18.1.0, SVG Export Plug-In . SVG Version: 6.00 Build 0)  -->
<svg version="1.1" id="图层_1" xmlns="http://www.w3.org/2000/svg" xmlns:xlink="http://www.w3.org/1999/xlink" x="0px" y="0px"
	 viewBox="-3 5 32 32" enable-background="new -3 5 32 32" xml:space="preserve">
<path fill-opacity="0.85" d="M6.1,30.3l-6.3,6.3l-2.3-2.3L3.8,28h-5.2v-3.2H9.3v10.7H6.1L6.1,30.3L6.1,30.3z M6.1,11.8V6.6h3.2v10.7
	H-1.4v-3.2h5.2l-6.3-6.3l2.3-2.3L6.1,11.8L6.1,11.8z M19.9,30.3v5.2h-3.2V24.8h10.7V28h-5.2l6.3,6.3l-2.3,2.3
	C26.2,36.6,19.9,30.3,19.9,30.3z M19.9,11.8l6.3-6.3l2.3,2.3l-6.3,6.3h5.2v3.2H16.7V6.6h3.2C19.9,6.6,19.9,11.8,19.9,11.8z"/>
</svg>
