<?xml version="1.0" encoding="utf-8"?>
<!-- Generator: Adobe Illustrator 18.1.0, SVG Export Plug-In . SVG Version: 6.00 Build 0)  -->
<svg version="1.1" id="图层_1" xmlns="http://www.w3.org/2000/svg" xmlns:xlink="http://www.w3.org/1999/xlink" x="0px" y="0px"
	 viewBox="80 -80 200 200" enable-background="new 80 -80 200 200" xml:space="preserve">
<path d="M247.9,44.7c1.9,0,3.8,0,6.6,0.9V-80.3h-125l-49.8,62v125h129.7c-2.8-5.6-4.7-12.2-4.7-18.8
	C204.7,63.5,223.5,44.7,247.9,44.7L247.9,44.7z M179.3-55.8h49.8v25.4h-49.8V-55.8z M179.3,19.3V-6h49.8v25.4H179.3z M254.5,69.1
	c-14.1,0-25.4,11.3-25.4,25.4s11.3,25.4,25.4,25.4s25.4-11.3,25.4-25.4C278.9,80.4,268.6,69.1,254.5,69.1z"/>
</svg>
