<?xml version="1.0" standalone="no"?><!DOCTYPE svg PUBLIC "-//W3C//DTD SVG 1.1//EN" "http://www.w3.org/Graphics/SVG/1.1/DTD/svg11.dtd"><svg t="1555492869748" class="icon" style="" viewBox="0 0 1024 1024" version="1.1" xmlns="http://www.w3.org/2000/svg" p-id="3144" xmlns:xlink="http://www.w3.org/1999/xlink" width="200" height="200"><defs><style type="text/css"></style></defs><path d="M1017.6 595.2c6.4-25.6 6.4-57.6 6.4-83.2 0-281.6-230.4-512-512-512S0 230.4 0 512c0 25.6 0 57.6 6.4 83.2C44.8 838.4 256 1024 512 1024s467.2-185.6 505.6-428.8zM512 25.6c268.8 0 486.4 217.6 486.4 486.4-32-76.8-102.4-128-179.2-128-57.6 0-115.2 25.6-153.6 76.8C627.2 416 569.6 384 512 384s-115.2 32-153.6 76.8C320 416 268.8 384 204.8 384 128 384 57.6 435.2 25.6 512 25.6 243.2 243.2 25.6 512 25.6z m480 569.6c-6.4 32-12.8 64-25.6 89.6-38.4-51.2-96-76.8-153.6-76.8-57.6 0-115.2 25.6-153.6 70.4-38.4-44.8-89.6-70.4-153.6-70.4-57.6 0-115.2 25.6-153.6 70.4-32-44.8-89.6-70.4-147.2-70.4-57.6 0-115.2 25.6-153.6 70.4-12.8-25.6-19.2-57.6-19.2-83.2 0-102.4 76.8-179.2 172.8-179.2 57.6 0 108.8 25.6 140.8 76.8l12.8 12.8 12.8-12.8c32-51.2 83.2-83.2 140.8-83.2s108.8 25.6 140.8 76.8l12.8 12.8 12.8-12.8c32-51.2 83.2-76.8 140.8-76.8 96 0 172.8 83.2 172.8 185.6zM512 998.4c-198.4 0-371.2-121.6-448-294.4 32-44.8 83.2-76.8 140.8-76.8 57.6 0 108.8 25.6 140.8 76.8l12.8 12.8 6.4-12.8c32-44.8 83.2-76.8 140.8-76.8 57.6 0 108.8 25.6 140.8 76.8l12.8 12.8 12.8-12.8c32-44.8 83.2-76.8 140.8-76.8 57.6 0 108.8 32 147.2 83.2-83.2 172.8-249.6 288-448 288z" fill="" p-id="3145"></path></svg>