<?xml version="1.0" encoding="utf-8"?>
<!-- Generator: Adobe Illustrator 18.1.0, SVG Export Plug-In . SVG Version: 6.00 Build 0)  -->
<svg version="1.1" id="图层_1" xmlns="http://www.w3.org/2000/svg" xmlns:xlink="http://www.w3.org/1999/xlink" x="0px" y="0px"
	 viewBox="0 0 40 40" enable-background="new 0 0 40 40" xml:space="preserve">
<path d="M34.4,30.9V9.1c1.6-0.3,2.7-1.8,2.4-3.5c-0.3-1.6-1.8-2.7-3.5-2.4c-1.2,0.2-2.1,1.1-2.4,2.3H9.1C8.8,4,7.2,2.9,5.6,3.3
	S2.9,5.1,3.3,6.8C3.5,8,4.4,8.9,5.6,9.1v21.8c-1.6,0.3-2.7,1.8-2.4,3.5c0.3,1.6,1.8,2.7,3.5,2.4c1.2-0.2,2.2-1.2,2.4-2.4h21.8
	c0.3,1.6,1.9,2.7,3.5,2.3c1.6-0.3,2.7-1.9,2.3-3.5C36.5,32.1,35.6,31.1,34.4,30.9z M30.7,30.7H9.3V9.3h21.4V30.7z"/>
</svg>
