<?xml version="1.0" encoding="utf-8"?>
<!-- Generator: Adobe Illustrator 18.1.0, SVG Export Plug-In . SVG Version: 6.00 Build 0)  -->
<svg version="1.1" id="图层_1" xmlns="http://www.w3.org/2000/svg" xmlns:xlink="http://www.w3.org/1999/xlink" x="0px" y="0px"
	 viewBox="80 -80 200 200" enable-background="new 80 -80 200 200" xml:space="preserve">
<path d="M117.6,11.8h19.7c10.9,0,19.7,8.8,19.7,19.7c0,0,0,0,0,0v4.9c0,10.9-8.8,19.7-19.7,19.7c0,0,0,0,0,0h-9.8v19.7h-9.8V11.8z
	 M220.8,51.2v24.6H211V11.8h34.4v9.8h-24.6v19.7h19.7v9.8H220.8z M206.1-76.7L270-12.7v113.1c0,10.8-8.8,19.7-19.6,19.7c0,0,0,0,0,0
	H112.6c-10.8,0-19.6-8.8-19.6-19.7V-57c0-10.9,8.8-19.7,19.6-19.7H206.1z M206-12.7h50.1l-50-50.1L206-12.7z M260.2,100.3V-2.9H206
	c-5.4,0-9.8-4.4-9.8-9.8v-54.1h-83.6c-5.4,0-9.8,4.4-9.8,9.8v157.3c0,5.4,4.4,9.8,9.8,9.8h137.8
	C255.8,110.2,260.2,105.8,260.2,100.3L260.2,100.3z M161.8,11.8h14.8c13.6,0,24.6,11,24.6,24.6v14.8c0,13.6-11,24.6-24.6,24.6h-14.8
	C161.8,75.8,161.8,11.8,161.8,11.8z M171.7,65.9h4.9c8.1,0,14.8-6.6,14.8-14.7V36.4c0-8.1-6.6-14.8-14.8-14.8h-4.9V65.9z
	 M127.4,21.7v24.6h9.8c5.4,0,9.8-4.4,9.8-9.8v-4.9c0-5.4-4.4-9.8-9.8-9.8H127.4z"/>
</svg>
