<?xml version="1.0" encoding="utf-8"?>
<!-- Generator: Adobe Illustrator 18.1.0, SVG Export Plug-In . SVG Version: 6.00 Build 0)  -->
<svg version="1.1" id="图层_1" xmlns="http://www.w3.org/2000/svg" xmlns:xlink="http://www.w3.org/1999/xlink" x="0px" y="0px"
	 viewBox="82 -80 204.5 200" enable-background="new 82 -80 204.5 200" xml:space="preserve">
<path d="M265.7,49.9l9.5-97.5c8.7-2.9,13.4-12.3,10.5-21.1s-12.3-13.4-21.1-10.5c-5,1.7-8.9,5.5-10.5,10.5l-139.8,9.7
	c-2.9-8.7-12.3-13.4-21.1-10.5S79.9-57.1,82.9-48.4c1.7,5,5.5,8.9,10.5,10.5l20.5,125.5c-8.7,2.9-13.4,12.3-10.5,21.1
	c2.9,8.7,12.3,13.4,21.1,10.5c5-1.7,8.9-5.5,10.5-10.5L244.6,71c2.9,8.7,12.3,13.4,21.1,10.5c8.7-2.9,13.4-12.3,10.5-21.1
	C274.5,55.5,270.6,51.6,265.7,49.9L265.7,49.9z M269.9-71c4.2,0,7.7,3.4,7.7,7.7c0,4.2-3.4,7.7-7.7,7.7c-4.2,0-7.7-3.4-7.7-7.7
	c0,0,0,0,0,0C262.3-67.6,265.7-71,269.9-71z M91-53.7c0-4.2,3.4-7.7,7.7-7.7s7.7,3.4,7.7,7.7c0,4.2-3.4,7.7-7.7,7.7c0,0,0,0,0,0
	C94.4-46,91-49.4,91-53.7z M119.1,111c-4.2,0-7.7-3.4-7.7-7.7c0-4.2,3.4-7.7,7.7-7.7c4.2,0,7.7,3.4,7.7,7.7c0,0,0,0,0,0
	C126.8,107.6,123.4,111,119.1,111L119.1,111z M244.6,60.4L134.9,98.1c-1.7-4.9-5.5-8.8-10.5-10.5L103.9-37.9
	c4.9-1.7,8.8-5.6,10.5-10.5l139.7-9.7c1.7,4.9,5.5,8.8,10.5,10.5l-9.5,97.5C250.2,51.6,246.3,55.5,244.6,60.4L244.6,60.4z
	 M260.4,73.4c-4.2,0-7.7-3.4-7.7-7.7s3.4-7.7,7.7-7.7c4.2,0,7.7,3.4,7.7,7.7c0,0,0,0,0,0C268.1,69.9,264.7,73.4,260.4,73.4z"/>
</svg>
