<?xml version="1.0" encoding="utf-8"?>
<!-- Generator: Adobe Illustrator 18.1.0, SVG Export Plug-In . SVG Version: 6.00 Build 0)  -->
<svg version="1.1" id="图层_1" xmlns="http://www.w3.org/2000/svg" xmlns:xlink="http://www.w3.org/1999/xlink" x="0px" y="0px"
	 viewBox="80 -80 200 200" enable-background="new 80 -80 200 200" xml:space="preserve">
<path d="M162.5,4.2c1.1,0,1.7-0.6,2.2-1.1c0.6-0.6,1.1-1.7,1.1-2.2V-70c0-0.6,0-1.1-0.6-1.1h-1.1l-24.4,24.4l-32.1-32.1
	c-0.6-0.6-1.7-1.1-2.2-1.1c-1.1,0-2.2,0.6-2.8,1.1L81.1-57.3c-0.6,0.6-1.1,1.7-1.1,2.2c0,1.1,0.6,2.2,1.1,2.8l32.1,31.6L90,2.5
	c-0.6,0.6-0.6,0.6,0,1.1c0,0.6,0.6,0.6,1.1,0.6H162.5z M162.5,34.7c1.1,0,1.7,0.6,2.2,1.1c0.6,0.6,1.1,1.7,1.1,2.2v71.5
	c0,0.6,0,1.1-0.6,1.1h-1.1l-24.4-24.4l-32.1,32.1c-0.6,0.6-1.7,1.1-2.2,1.1c-1.1,0-1.7-0.6-2.2-1.1L81.7,96.7
	c-1.1-0.6-1.7-1.7-1.7-2.2s0.6-1.7,1.1-2.2l32.1-32.1L90,36.9c-0.6-0.6-0.6-0.6,0-1.1c0-0.6,0.6-0.6,1.1-0.6L162.5,34.7z M196.9,4.2
	c-1.1,0-1.7-0.6-2.2-1.1c-0.6-0.6-1.1-1.7-1.1-2.2V-70c0-0.6,0-1.1,0.6-1.1h1.1l24.4,24.4l32.1-32.1c0.6-0.6,1.7-1.1,2.2-1.1
	c1.1,0,1.7,0.6,2.2,1.1l21.6,21.6c1.1,0.6,1.7,1.7,1.7,2.2c0,1.1-0.6,1.7-1.1,2.2l-32.1,32.1l23.3,23.3c0.6,0.6,0.6,0.6,0,1.1
	c0,0.6-0.6,0.6-1.1,0.6C268.4,4.2,196.9,4.2,196.9,4.2z M196.9,34.7c-1.1,0-1.7,0.6-2.2,1.1c-0.6,0.6-1.1,1.7-1.1,2.2v71.5
	c0,0.6,0,1.1,0.6,1.1h1.1l23.8-23.8l32.1,32.1c0.6,0.6,1.7,1.1,2.2,1.1c1.1,0,1.7-0.6,2.2-1.1l21.6-21.6c0.6-0.6,1.1-1.7,1.1-2.2
	c0-0.6-0.6-1.7-1.1-2.2l-31-32.7l23.3-23.3c0.6-0.6,0.6-0.6,0-1.1c0-0.6-0.6-0.6-1.1-0.6L196.9,34.7z"/>
</svg>
