<?xml version="1.0" encoding="utf-8"?>
<!-- Generator: Adobe Illustrator 18.1.0, SVG Export Plug-In . SVG Version: 6.00 Build 0)  -->
<svg version="1.1" id="图层_1" xmlns="http://www.w3.org/2000/svg" xmlns:xlink="http://www.w3.org/1999/xlink" x="0px" y="0px"
	 viewBox="80 -80 200 200" enable-background="new 80 -80 200 200" xml:space="preserve">
<path d="M83.3-79.4c-1.1,0-1.7,0.6-2.2,1.1c-0.6,0.6-1.1,1.1-1.1,2.2V-5c0,0.6,0,1.1,0.6,1.1h1.1l23.9-23.9l32.2,32.2
	c0.6,0.6,1.7,1.1,2.2,1.1c1.1,0,1.7-0.6,2.2-1.1l21.7-21.7c0.6-0.6,1.1-1.7,1.1-2.2c0-1.1-0.6-1.7-1.1-2.2L132.8-55l23.3-23.3
	c0.6-0.6,0.6-0.6,0-1.1c0-0.6-0.6-0.6-0.6-0.6L83.3-79.4z M83.3,120c-1.1,0-1.7-0.6-2.2-1.1c-0.6-0.6-1.1-1.7-1.1-2.2V45
	c0-0.6,0-1.1,0.6-1.1h1.1l23.9,23.9l32.2-32.2c0.6-0.6,1.7-1.1,2.2-1.1c1.1,0,1.7,0.6,2.2,1.1l21.7,21.7c0.6,0.6,1.1,1.7,1.1,2.2
	s-0.6,1.7-1.1,2.2l-32.2,32.2l23.3,23.3c0.6,0.6,0.6,0.6,0,1.1c0,0.6-0.6,0.6-1.1,0.6L83.3,120z M276.7-79.4c1.1,0,1.7,0.6,2.2,1.1
	c0.6,0.6,1.1,1.1,1.1,2.2V-5c0,0.6,0,1.1-0.6,1.1h-1.1l-23.9-23.9L222.2,4.4c-0.6,0.6-1.7,1.1-2.2,1.1c-1.1,0-1.7-0.6-2.2-1.1
	l-21.7-21.7c-0.6-0.6-1.1-1.7-1.1-2.2c0-1.1,0.6-1.7,1.1-2.2l32.2-32.2L205-77.2c-0.6-0.6-0.6-0.6,0-1.1c-1.1-1.7-0.6-1.7-0.6-1.7
	L276.7-79.4z M276.7,120c1.1,0,1.7-0.6,2.2-1.1c0.6-0.6,1.1-1.7,1.1-2.2V45c0-0.6,0-1.1-0.6-1.1h-1.1l-23.9,23.9l-32.2-32.2
	c-0.6-0.6-1.7-1.1-2.2-1.1c-1.1,0-1.7,0.6-2.2,1.1l-21.7,21.7c-0.6,0.6-1.1,1.7-1.1,2.2s0.6,1.7,1.1,2.2l32.2,32.2L205,117.2
	c-0.6,0.6-0.6,0.6,0,1.1c0,0.6,0.6,0.6,1.1,0.6L276.7,120L276.7,120z"/>
</svg>
