<?xml version="1.0" encoding="utf-8"?>
<!-- Generator: Adobe Illustrator 18.1.0, SVG Export Plug-In . SVG Version: 6.00 Build 0)  -->
<svg version="1.1" id="图层_1" xmlns="http://www.w3.org/2000/svg" xmlns:xlink="http://www.w3.org/1999/xlink" x="0px" y="0px"
	 viewBox="80 -80 200 200" enable-background="new 80 -80 200 200" xml:space="preserve">
<path d="M110-46.7H83.3c-1.8,0-3.3-1.5-3.3-3.3c0,0,0,0,0,0v-26.7c0-1.8,1.5-3.3,3.3-3.3H110c1.8,0,3.3,1.5,3.3,3.3l0,0V-50
	C113.3-48.2,111.8-46.7,110-46.7L110-46.7z M86.7-53.3h20v-20h-20C86.7-73.3,86.7-53.3,86.7-53.3z M276.7-46.7H250
	c-1.8,0-3.3-1.5-3.3-3.3v0v-26.7c0-1.8,1.5-3.3,3.3-3.3c0,0,0,0,0,0h26.7c1.8,0,3.3,1.5,3.3,3.3V-50C280-48.2,278.5-46.7,276.7-46.7
	L276.7-46.7z M253.3-53.3h20v-20h-20V-53.3z M110,120H83.3c-1.8,0-3.3-1.5-3.3-3.3c0,0,0,0,0,0V90c0-1.8,1.5-3.3,3.3-3.3
	c0,0,0,0,0,0H110c1.8,0,3.3,1.5,3.3,3.3l0,0v26.7C113.3,118.5,111.8,120,110,120z M86.7,113.3h20v-20h-20
	C86.7,93.3,86.7,113.3,86.7,113.3z M276.7,120H250c-1.8,0-3.3-1.5-3.3-3.3c0,0,0,0,0,0V90c0-1.8,1.5-3.3,3.3-3.3c0,0,0,0,0,0h26.7
	c1.8,0,3.3,1.5,3.3,3.3v26.7C280,118.5,278.5,120,276.7,120z M253.3,113.3h20v-20h-20V113.3z"/>
<path d="M96.7,93.3c-1.8,0-3.3-1.5-3.3-3.3V-50c0-1.8,1.5-3.3,3.4-3.3c1.8,0,3.3,1.5,3.3,3.3V90C100,91.8,98.5,93.3,96.7,93.3
	C96.7,93.3,96.7,93.3,96.7,93.3L96.7,93.3z M250-60H110c-1.8,0-3.3-1.5-3.3-3.4c0-1.8,1.5-3.3,3.3-3.3h140c1.8,0,3.3,1.5,3.3,3.4
	C253.3-61.5,251.8-60,250-60z M263.3,93.3c-1.8,0-3.3-1.5-3.3-3.3c0,0,0,0,0,0V-50c0-1.8,1.5-3.3,3.4-3.3c1.8,0,3.3,1.5,3.3,3.3V90
	C266.7,91.8,265.2,93.3,263.3,93.3z M250,106.7H110c-1.8,0-3.3-1.5-3.3-3.4c0-1.8,1.5-3.3,3.3-3.3h140c1.8,0,3.3,1.5,3.3,3.4
	C253.3,105.2,251.8,106.7,250,106.7z"/>
</svg>
