<?xml version="1.0" standalone="no"?><!DOCTYPE svg PUBLIC "-//W3C//DTD SVG 1.1//EN" "http://www.w3.org/Graphics/SVG/1.1/DTD/svg11.dtd"><svg t="1555492492854" class="icon" style="" viewBox="0 0 1024 1024" version="1.1" xmlns="http://www.w3.org/2000/svg" p-id="5510" xmlns:xlink="http://www.w3.org/1999/xlink" width="200" height="200"><defs><style type="text/css"></style></defs><path d="M915.875 263.9375c-0.5625-0.5625-0.5625-0.5625-1.125-0.5625l-13.5-7.3125h-1.125L512 62 123.3125 256.0625l-12.375 6.1875c-6.75 5.0625-10.6875 12.9375-10.6875 21.9375 0 11.8125 6.75 21.9375 16.3125 26.4375h791.4375a29.08125 29.08125 0 0 0 7.875-46.6875zM297.6875 243.6875L512 136.8125l214.3125 106.875H297.6875zM757.5875 366.9875h66.88125v480.65625h-66.88125zM286.83125 780.70625h455.9625v66.9375H286.83125zM185.4125 366.9875h66.88125v480.65625H185.4125zM99.63125 894.05H931.0625V962H99.63125zM587.375 352.25h66.825v392.0625H587.375zM355.7375 352.25h66.88125v392.0625H355.7375z" p-id="5511"></path></svg>