<?xml version="1.0" encoding="utf-8"?>
<!-- Generator: Adobe Illustrator 18.1.0, SVG Export Plug-In . SVG Version: 6.00 Build 0)  -->
<svg version="1.1" id="图层_1" xmlns="http://www.w3.org/2000/svg" xmlns:xlink="http://www.w3.org/1999/xlink" x="0px" y="0px"
	 viewBox="80 -80 200 200" enable-background="new 80 -80 200 200" xml:space="preserve">
<path d="M210.5-30c-16.1-27-27.7-50-27.7-50s-15.6,26.3-33.3,53.7c-17.2,26.7-36.6,54.1-37,83.3c-0.4,30.5,26.8,63,70.3,63
	c43.5,0,63.8-31.5,64.7-59.3C248.4,30.6,227.2-2,210.5-30z M223.4,84.8c0,0,3.7-20.5,2.8-39.1C225.3,28.3,217.9,7,217.9,7
	s14.9,15.3,16.8,37.1C236.2,62.1,223.4,84.8,223.4,84.8z"/>
</svg>
