<?xml version="1.0" encoding="utf-8"?>
<!-- Generator: Adobe Illustrator 18.1.0, SVG Export Plug-In . SVG Version: 6.00 Build 0)  -->
<svg version="1.1" id="图层_1" xmlns="http://www.w3.org/2000/svg" xmlns:xlink="http://www.w3.org/1999/xlink" x="0px" y="0px"
	 viewBox="80 -80 200 200" enable-background="new 80 -80 200 200" xml:space="preserve">
<path d="M226.6-34.4l-57,35.8l-57-35.8H96l73.6,46.2l73.6-46.2C243.2-34.4,226.6-34.4,226.6-34.4z"/>
<path d="M183.1,60.4h-75.2c-9.5,0-17.2-7.7-17.2-17.2v-68c0-9.5,7.7-17.2,17.2-17.2h123.2c9.5,0,17.2,7.7,17.2,17.2v21.3
	c0,2.4-2,4.4-4.4,4.4s-4.4-2-4.4-4.4v-21.3c0-4.6-3.8-8.4-8.4-8.4H107.9c-4.6,0-8.4,3.8-8.4,8.4v68c0,4.6,3.8,8.4,8.4,8.4h75.2
	c2.4,0,4.4,2,4.4,4.4C187.5,58.4,185.6,60.4,183.1,60.4z"/>
<path d="M233.7,82c-19.6,0-35.6-16-35.6-35.6s16-35.6,35.6-35.6s35.6,16,35.6,35.6S253.3,82,233.7,82L233.7,82z M233.7,19.6
	c-14.8,0-26.8,12-26.8,26.8s12,26.8,26.8,26.8s26.8-12,26.8-26.8S248.4,19.6,233.7,19.6z"/>
<path d="M224.5,38.6c-1.6,0-3-1.4-3-3v-5.4c0-1.6,1.4-3,3-3s3,1.4,3,3v5.4C227.5,37.3,226.2,38.6,224.5,38.6z M233.7,53.3
	c-1.6,0-3-1.4-3-3v-4c0-1.6,1.4-3,3-3s3,1.4,3,3v4C236.7,51.9,235.4,53.3,233.7,53.3z M233.7,63.4c-1.6,0-3-1.4-3-3s1.4-3,3-3
	s3,1.4,3,3S235.4,63.4,233.7,63.4z"/>
<path d="M221.5,30.3c0-1.6,1.4-3,3-3h19.8c1.6,0,3,1.4,3,3c0,1.6-1.4,3-3,3h-19.8C222.8,33.3,221.5,31.9,221.5,30.3z M230.7,46.3
	c0-1.6,1.4-3,3-3h10.5c1.6,0,3,1.4,3,3c0,1.6-1.4,3-3,3h-10.5C232,49.3,230.7,47.9,230.7,46.3z"/>
<path d="M244.2,49.3c-1.6,0-3-1.4-3-3v-16c0-1.6,1.4-3,3-3s3,1.4,3,3v16C247.2,47.9,245.9,49.3,244.2,49.3z"/>
</svg>
