<?xml version="1.0" encoding="utf-8"?>
<!-- Generator: Adobe Illustrator 18.1.0, SVG Export Plug-In . SVG Version: 6.00 Build 0)  -->
<svg version="1.1" id="图层_1" xmlns="http://www.w3.org/2000/svg" xmlns:xlink="http://www.w3.org/1999/xlink" x="0px" y="0px"
	 viewBox="80 -80 200 200" enable-background="new 80 -80 200 200" xml:space="preserve">
<path d="M227.2,51.2c-8.3,0-16.5-2.2-23.7-6.3c-8.4,4.6-15.8,6.3-26.6,6.3c-11.4,0-22-3.2-32.2-9.6c-6.5,5.1-14.5,7.8-22.7,7.8
	c-20.1,0-36.5-16.2-36.5-36.1c0.1-17,11.9-31.6,28.5-35.2c4.3-30.4,30.5-52.9,63-52.9c23.3,0,44.8,12.7,56.1,33
	c23.3,2.8,41.4,22.5,41.4,46.4C274.5,30.2,253.3,51.2,227.2,51.2z M142,99.6c-0.1,8.5-7.1,15.4-15.6,15.3
	c-8.4-0.1-15.2-6.9-15.3-15.3c0-11.8,14.3-28.2,15.5-36.5C127.6,71.6,142,87.3,142,99.6z M195.3,99.6c-0.1,8.5-7.1,15.4-15.6,15.3
	c-8.4-0.1-15.2-6.9-15.3-15.3c0-11.8,14.3-28.2,15.5-36.5C180.8,71.6,195.3,87.3,195.3,99.6z M248.5,99.6
	c-0.1,8.5-7.1,15.4-15.7,15.3c-8.4-0.1-15.2-6.9-15.3-15.3c0-11.8,14.3-28.2,15.5-36.5C234.1,71.6,248.5,87.3,248.5,99.6L248.5,99.6
	z"/>
</svg>
