<?xml version="1.0" encoding="utf-8"?>
<!-- Generator: Adobe Illustrator 18.1.0, SVG Export Plug-In . SVG Version: 6.00 Build 0)  -->
<svg version="1.1" id="图层_1" xmlns="http://www.w3.org/2000/svg" xmlns:xlink="http://www.w3.org/1999/xlink" x="0px" y="0px"
	 viewBox="80 -80 200 200" enable-background="new 80 -80 200 200" xml:space="preserve">
<path d="M267.5-6.1c-2.9-3.4-6.9-5.7-11.4-6.3v-6.9c0-10.7-8.7-19.4-19.4-19.5h-51.5l-7.6-11C175-53,171.1-55,166.9-55h-65.8
	c-5.2,1.3-8.8,6.1-8.6,11.5V75.9c0.2,10.7,9,19.3,19.8,19.1h125c10.4-0.1,19.3-7.3,21.6-17.4l12.5-68.1C272.4,4,271-1.7,267.5-6.1z
	 M105-42.5h62.5l11.4,16.3H237c3.8,0.1,6.9,3.2,6.9,7v6.6h-133c-1.7,0-3.3,0.3-4.9,0.8h-1V-42.5z M259.1,7.5l-12.5,68.1
	c-1.2,4.2-5,7.1-9.4,7.3h-125c-3.9,0.1-7.1-2.9-7.2-6.7c0-0.1,0-0.3,0-0.4V4.6c0.2-2.8,2.6-5,5.5-4.8c0,0,0,0,0,0H253
	c1.8-0.1,3.5,0.7,4.6,2C259,3.4,259.5,5.5,259.1,7.5z"/>
</svg>
