<?xml version="1.0" encoding="utf-8"?>
<!-- Generator: Adobe Illustrator 18.1.0, SVG Export Plug-In . SVG Version: 6.00 Build 0)  -->
<svg version="1.0" xmlns="http://www.w3.org/2000/svg" xmlns:xlink="http://www.w3.org/1999/xlink" x="0px" y="0px"
	 viewBox="0 0 1024 1024" enable-background="new 0 0 1024 1024" xml:space="preserve">
<g id="图层_1" display="none">
</g>
<g id="图层_2">
	<path display="none" fill-rule="evenodd" clip-rule="evenodd" fill="#231815" d="M58.443,909.172
		c-19.676,0-35.629-16.578-35.629-37.034V152.752c0-20.46,15.954-37.034,35.629-37.034c19.679,0,35.633,16.574,35.633,37.034
		v189.781h-1.48v415.11v63.864v7.984h890.759v79.681H58.443z M162.408,446.406l62.056-16.064l198.675,95.147l119.135-38.286
		L673.77,346.525l157.512-38.876l152.073-89.294v539.288H162.408V446.406z"/>
	<g display="none">
		<g display="inline">
			<path fill="#040000" d="M988.845,713.012L770.89,567.738v90.746H615.049L519.616,541.92l-70.377,86.014l97.815,119.543
				c10.314,12.655,25.736,19.985,42.182,19.985H770.89v90.825L988.845,713.012z M262.385,258.908H80.721
				c-30.16,0-54.532,24.367-54.532,54.532c0,30.031,24.369,54.45,54.532,54.45h155.758l95.433,116.601l70.376-86.06l-97.815-119.543
				C294.078,266.274,278.656,258.908,262.385,258.908"/>
			<path fill="#040000" d="M988.845,313.394L770.89,168.119v90.746H589.235c-16.445,0-31.867,7.413-42.182,19.98L236.479,658.485
				H80.639c-29.995,0-54.532,24.451-54.532,54.528c0,30.124,24.538,54.45,54.532,54.45h181.659c16.359,0,31.781-7.33,42.259-19.985
				l310.492-379.633H770.89v90.828L988.845,313.394z M988.845,313.394"/>
		</g>
	</g>
	<g>
		<path d="M341.465,861.28C218.687,804.135,130.84,686.113,117.312,546.582H61c19.138,228.617,212.518,408.229,448.691,408.229
			l24.776-1.114L391.398,812.3L341.465,861.28z M695.895,399.608c-12.094-12.358-26.666-22.085-42.783-28.56
			c-16.141-6.699-34.539-10.034-54.831-10.034h-88.605v296.891h86.348c20.658,0,39.8-3.331,56.7-10.016
			c16.899-6.67,31.539-15.956,43.559-28.211c12.287-12.632,21.747-27.677,27.777-44.157c6.392-17.433,9.767-36.739,9.767-58.262
			v-14.835c0-21.537-3.385-40.839-9.767-58.276c-6.741-17.437-16.138-32.293-28.143-44.541H695.895z M681.256,516.897
			c0,15.583-1.869,29.304-5.243,41.921c-3.759,12.255-9.019,23.021-16.138,31.557c-7.151,8.535-16.141,15.205-26.666,19.672
			c-10.888,4.449-23.288,6.67-37.166,6.67h-34.169V402.591h36.408c27.036,0,47.695,8.535,61.576,25.606
			c14.269,17.07,21.398,41.558,21.398,73.845V516.897z M509.691,64.124l-24.79,1.118l143.048,141.396l49.94-49.36
			c122.774,57.507,210.628,175.163,223.776,314.709h56.333C939.194,243.74,745.839,64.124,509.656,64.124H509.691z M509.691,64.124"
			/>
		<path fill-rule="evenodd" clip-rule="evenodd" d="M260.249,360.979h199.32v49.481h-199.32V360.979z"/>
		<path fill-rule="evenodd" clip-rule="evenodd" d="M409.739,410.46h49.83v123.707h-49.83V410.46z"/>
		<path fill-rule="evenodd" clip-rule="evenodd" d="M260.249,608.392h199.32v49.481h-199.32V608.392z"/>
		<path fill-rule="evenodd" clip-rule="evenodd" d="M310.079,484.686h99.66v49.481h-99.66V484.686z"/>
		<path fill-rule="evenodd" clip-rule="evenodd" d="M260.249,484.686h49.83v148.447h-49.83V484.686z"/>
	</g>
</g>
</svg>
