<?xml version="1.0" encoding="utf-8"?>
<!-- Generator: Adobe Illustrator 18.1.0, SVG Export Plug-In . SVG Version: 6.00 Build 0)  -->
<svg version="1.1" id="图层_1" xmlns="http://www.w3.org/2000/svg" xmlns:xlink="http://www.w3.org/1999/xlink" x="0px" y="0px"
	 viewBox="-3 5 32 32" enable-background="new -3 5 32 32" xml:space="preserve">
<path d="M25,17.2h-4v-6.4c-0.1-1-1-1.8-2-1.8H7c-1-0.1-1.9,0.6-2,1.5c0,0.1,0,0.1,0,0.2v6.4H1c-1.1,0-2,0.9-2,2c0,0.1,0,0.1,0,0.2
	V33h28V19.4c0.1-1.1-0.7-2.1-1.8-2.2C25.1,17.2,25.1,17.2,25,17.2z M7,10.8h12v6.4H7V10.8z M20,31H6c-0.6,0-1-0.4-1-1s0.4-1,1-1h14
	c0.6,0,1,0.4,1,1S20.6,31,20,31z M21,23.2c-1.1,0-2-0.9-2-2c0-1.1,0.9-2,2-2s2,0.9,2,2C23,22.3,22.1,23.2,21,23.2z"/>
</svg>
