<?xml version="1.0" encoding="utf-8"?>
<!-- Generator: Adobe Illustrator 18.1.0, SVG Export Plug-In . SVG Version: 6.00 Build 0)  -->
<svg version="1.1" id="图层_1" xmlns="http://www.w3.org/2000/svg" xmlns:xlink="http://www.w3.org/1999/xlink" x="0px" y="0px"
	 viewBox="80 -80 200 200" enable-background="new 80 -80 200 200" xml:space="preserve">
<path d="M181.1,0.5c-20.3,0-36.8,16.5-36.8,36.8s16.5,36.8,36.8,36.8S218,57.7,218,37.4S201.5,0.5,181.1,0.5z M181.1,14.3
	c-12.7,0-22.9,10.2-23,22.8l-4.6,0c0.1-15.2,12.4-27.4,27.6-27.4C181.1,9.7,181.1,14.3,181.1,14.3z M264-27.1h-25.4
	c-9.4-1.4-13-6.2-14.3-9.8l-1.7-8.6c-1.7-5.3-6.4-9.4-17.5-9.2h-47.9c-9.6-0.3-15.8,3.7-17.5,9.2l-0.9,4.6l-0.6,3
	c-2.4,7.8-10.7,10.2-17.3,10.9H98.2c-5.1,0-9.2,4.1-9.2,9.2V92.6c0,5.1,4.1,9.2,9.2,9.2H264c5.1,0,9.2-4.1,9.2-9.2V-17.9
	C273.2-23,269.1-27.1,264-27.1L264-27.1z M181.1,83.4c-25.4,0-46.1-20.6-46.1-46.1s20.6-46.1,46.1-46.1s46.1,20.6,46.1,46.1
	S206.5,83.4,181.1,83.4L181.1,83.4z M250.2,5.1c-5.1,0-9.2-4.1-9.2-9.2c0-5.1,4.1-9.2,9.2-9.2c5.1,0,9.2,4.1,9.2,9.2
	C259.4,1,255.3,5.1,250.2,5.1z"/>
</svg>
