<?xml version="1.0" encoding="utf-8"?>
<!-- Generator: Adobe Illustrator 18.1.0, SVG Export Plug-In . SVG Version: 6.00 Build 0)  -->
<svg version="1.1" id="图层_1" xmlns="http://www.w3.org/2000/svg" xmlns:xlink="http://www.w3.org/1999/xlink" x="0px" y="0px"
	 viewBox="-3 5 32 32" enable-background="new -3 5 32 32" xml:space="preserve">
<path d="M0.9,13.2c-0.4,0-0.8,0.2-1.1,0.5c-0.6,0.6-0.6,1.6,0,2.2l12.1,12.6c0.6,0.6,1.5,0.6,2.1,0.1c0,0,0,0,0.1-0.1
	c0.6-0.6,0.6-1.6,0-2.2L2,13.7C1.7,13.4,1.3,13.2,0.9,13.2z"/>
<path d="M25.1,13.2c-0.4,0-0.8,0.2-1.1,0.5L11.9,26.2c-0.6,0.6-0.6,1.6,0,2.2c0.6,0.6,1.5,0.6,2.1,0.1c0,0,0,0,0.1-0.1l12.1-12.6
	c0.6-0.6,0.6-1.6,0-2.2C25.9,13.4,25.5,13.2,25.1,13.2z"/>
</svg>
