<?xml version="1.0" encoding="utf-8"?>
<!-- Generator: Adobe Illustrator 18.1.0, SVG Export Plug-In . SVG Version: 6.00 Build 0)  -->
<svg version="1.1" id="图层_1" xmlns="http://www.w3.org/2000/svg" xmlns:xlink="http://www.w3.org/1999/xlink" x="0px" y="0px"
	 viewBox="0 0 40 40" enable-background="new 0 0 40 40" xml:space="preserve">
<g>
	<path d="M15.7,27.8c-0.8,0.4-1.4,0.8-2,1l2.9,0.4C18.1,28.9,17.4,28.4,15.7,27.8z"/>
	<g>
		<path d="M19.3,16.3c-0.2,0.1-0.4,0.2-0.6,0.3c-0.3,0.1-0.5,0.4-1.1,0.9c-5.4-0.5-12-1.1-13.4-1.3c-2.4-0.1-2.8,0.1-3.4,0.8
			l15.4,4.8c-0.9,0.8-1.8,1.5-2.5,2.1c-1.3-1.5-3.6-3.8-4.5-2.4c-0.1,0.3,0.9,2.9,1.4,4.4c-0.1,0,0.8,0,1,0.1
			c0.4,0.1,0.1,0.8,0.1,0.8c-0.1,0-1.6-0.3-1.8-0.3c-2.9-0.4-5-1.1-6.6,0.5l6,1c-0.8,1.4,1.1,1.1,2.1,0.9c0.3-0.1,0.6-0.3,1-0.4
			c0.5-0.3,1.3-0.6,1.9-1.1c2-1.1,4.6-2.8,7.4-4.6c0.7-0.5,1.5-1,2.2-1.4L19.3,16.3z"/>
		<path d="M39,8.4c-0.4-0.6-2.8-1.3-4.5-0.3c-1.3,0.8-5,3.5-9.3,6.8l3.1,3.3c4.4-3.1,8-5.7,9-6.5C39,10.3,39.4,9.1,39,8.4z"/>
	</g>
	<g>
		<path d="M34.2,24.6l0.4,0.1c0.5-0.5,0.4-0.9-1-1.8c-0.3-0.3-0.6-0.5-1.1-0.8l0.8-0.6c0.3-0.1,0.4-0.5,0.4-0.9
			c0-0.8-0.5-1.3-1.1-1.3c-0.3,0-0.4,0.1-0.6,0.3c-0.3,0.1-0.9,0.5-1.5,0.8L34.2,24.6z"/>
		<path d="M24.8,22.2c-0.4,0.3-0.9,0.6-1.3,0.9l2.5,0.3L24.8,22.2z"/>
	</g>
	<rect x="10.7" y="16.7" transform="matrix(0.6843 0.7292 -0.7292 0.6843 21.0691 -12.5904)" width="28.8" height="2.7"/>
</g>
</svg>
