<?xml version="1.0" encoding="utf-8"?>
<!-- Generator: Adobe Illustrator 18.1.0, SVG Export Plug-In . SVG Version: 6.00 Build 0)  -->
<svg version="1.1" id="图层_1" xmlns="http://www.w3.org/2000/svg" xmlns:xlink="http://www.w3.org/1999/xlink" x="0px" y="0px"
	 viewBox="-3 5 32 32" enable-background="new -3 5 32 32" xml:space="preserve">
<path d="M27.9,32.2l-5.1-5.2c3.3-5.2,2.7-12.2-1.8-16.8C15.7,5,7.2,5,1.9,10.3c-5.3,5.3-5.3,13.8,0,19.1c4.7,4.7,12,5.2,17.2,1.5
	l5,5.1L27.9,32.2L27.9,32.2z M4.5,26.8c-3.8-3.8-3.8-10.1,0-13.9C8.4,9,14.6,9,18.4,12.9c3.8,3.8,3.8,10.1,0,13.9
	C14.6,30.6,8.4,30.6,4.5,26.8z"/>
</svg>
