<?xml version="1.0" encoding="utf-8"?>
<!-- Generator: Adobe Illustrator 18.1.0, SVG Export Plug-In . SVG Version: 6.00 Build 0)  -->
<svg version="1.1" xmlns="http://www.w3.org/2000/svg" xmlns:xlink="http://www.w3.org/1999/xlink" x="0px" y="0px"
	 viewBox="0 0 1024 1024" enable-background="new 0 0 1024 1024" xml:space="preserve">
<g id="图层_1" display="none">
</g>
<g id="图层_2" display="none">
	<g display="inline">
		<path d="M504.6,442.2h126v63.2h-126v126.4h-63V505.3h-126v-63.2h126V315.7h63L504.6,442.2L504.6,442.2z M719.2,792.9
			c-158.8,120.7-386.6,108.2-532.1-37.3C28.4,597,28,340.2,186.2,182c158.1-158.1,415-157.7,573.6,0.9
			C906,329.1,917.9,558.6,795.2,717.5l165.2,165.2l-75.7,75.7L719.2,792.9z M725.3,721.1c138.5-138.5,138.1-363.5-1-502.6
			C585.2,79.4,360.2,79,221.7,217.5C83.2,356,83.5,581.1,222.6,720.2C361.7,859.2,586.8,859.6,725.3,721.1L725.3,721.1z
			 M725.3,721.1"/>
		<path d="M504.6,442.2h126v63.2h-126v126.4h-63V505.3h-126v-63.2h126V315.7h63L504.6,442.2L504.6,442.2z"/>
	</g>
</g>
<g id="图层_3">
	<g>
		<path d="M312.1,441.7L312.1,441.7h316.6v63.5H312.1 M438.8,505.2H312.1v-63.5h126.7 M717.8,794.4
			c-159.7,121.3-388.8,108.8-535-37.5c-159.6-159.6-160-417.8-1-576.8c159-159,417.3-158.6,576.8,1c147,147,158.9,377.7,35.6,537.5
			l166.1,166.1l-76.2,76.2L717.8,794.4z M724,722.2c139.3-139.3,138.9-365.6-1-505.4c-139.9-139.9-366.1-140.3-505.4-1
			c-139.3,139.3-138.9,365.6,1,505.4C358.4,861.1,584.7,861.4,724,722.2L724,722.2z M724,722.2"/>
	</g>
</g>
</svg>
