<?xml version="1.0" encoding="utf-8"?>
<!-- Generator: Adobe Illustrator 18.1.0, SVG Export Plug-In . SVG Version: 6.00 Build 0)  -->
<svg version="1.1" id="图层_1" xmlns="http://www.w3.org/2000/svg" xmlns:xlink="http://www.w3.org/1999/xlink" x="0px" y="0px"
	 viewBox="-3 5 32 32" enable-background="new -3 5 32 32" xml:space="preserve">
<path d="M26,13.3c-0.6-0.9-2.9-0.2-3.8,0.5c0,0-1.7,1.3-4,3.1l-7.2-1l-2.4,1.9l1.9,1L7.9,19l-1.8,2.1l6.7-0.1
	c-1.9,1.5-5.1,4.2-5.1,4.2l-3.7,0.3l-1.2,1.6l2.6,0.3l-1.3,0.8l4.5-0.6l14.9-10C24.4,16.8,26.9,14.7,26,13.3z"/>
<path d="M13,35.1c-7.7,0-14-6.3-14-14s6.3-14,14-14v1.3c-7,0-12.6,5.7-12.6,12.7S6.1,33.7,13,33.7S25.7,28,25.7,21.1H27
	C27,28.8,20.7,35.1,13,35.1z"/>
</svg>
