<?xml version="1.0" encoding="utf-8"?>
<!-- Generator: Adobe Illustrator 18.1.0, SVG Export Plug-In . SVG Version: 6.00 Build 0)  -->
<svg version="1.1" id="图层_1" xmlns="http://www.w3.org/2000/svg" xmlns:xlink="http://www.w3.org/1999/xlink" x="0px" y="0px"
	 viewBox="80 -80 200 200" enable-background="new 80 -80 200 200" xml:space="preserve">
<path d="M275.2,101.8H90.3V-68.3c0-2.7-2.7-5.4-5.4-5.4c-2.7,0-5.4,2.7-5.4,5.4v175.5c0,2.7,2.7,5.4,5.4,5.4h190.3
	c2.7,0,5.4-2.7,5.4-5.4C280.6,104.5,277.9,101.8,275.2,101.8z"/>
<path d="M120,85.6h6.7c4,0,6.7-2.7,6.7-6.7V18.1c0-4-2.7-6.7-6.7-6.7H120c-4,0-8.1,2.7-8.1,6.7v60.7C111.9,82.9,115.9,85.6,120,85.6
	z M163.2,85.6h6.7c4,0,6.7-2.7,6.7-6.7V-23.7c0-4-2.7-6.7-6.7-6.7h-6.7c-4,0-6.7,2.7-6.7,6.7V78.9C156.4,82.9,159.1,85.6,163.2,85.6
	z M206.4,85.6h6.7c4,0,6.7-2.7,6.7-6.7v-81c0-4-2.7-6.7-6.7-6.7h-6.7c-4,0-6.7,2.7-6.7,6.7v81C199.6,82.9,202.3,85.6,206.4,85.6z
	 M249.6,85.6h6.7c4,0,6.7-2.7,6.7-6.7V-49.4c0-4-2.7-6.7-6.7-6.7h-6.7c-4,0-6.7,2.7-6.7,6.7V78.9C242.8,82.9,245.5,85.6,249.6,85.6z
	"/>
</svg>
