<?xml version="1.0" encoding="utf-8"?>
<!-- Generator: Adobe Illustrator 18.1.0, SVG Export Plug-In . SVG Version: 6.00 Build 0)  -->
<svg version="1.1" id="图层_1" xmlns="http://www.w3.org/2000/svg" xmlns:xlink="http://www.w3.org/1999/xlink" x="0px" y="0px"
	 viewBox="80 -80 200 200" enable-background="new 80 -80 200 200" xml:space="preserve">
<path d="M179.5,6.7l-66.6-66.6c-3.2-3.3-8.5-3.4-11.8-0.2s-3.4,8.5-0.2,11.8c0.1,0.1,0.1,0.1,0.2,0.2l66.6,66.6l-66.6,66.6
	c-3.3,3.2-3.4,8.5-0.2,11.8s8.5,3.4,11.8,0.2c0.1-0.1,0.1-0.1,0.2-0.2l66.6-66.6l66.6,66.6c3.2,3.3,8.4,3.5,11.8,0.3
	c3.3-3.2,3.5-8.4,0.3-11.8c-0.1-0.1-0.2-0.2-0.3-0.3l-66.6-66.6l66.6-66.6c3.3-3.2,3.4-8.5,0.2-11.8c-3.2-3.3-8.5-3.4-11.8-0.2
	c-0.1,0.1-0.1,0.1-0.2,0.2L179.5,6.7L179.5,6.7z"/>
</svg>
