<?xml version="1.0" standalone="no"?><!DOCTYPE svg PUBLIC "-//W3C//DTD SVG 1.1//EN" "http://www.w3.org/Graphics/SVG/1.1/DTD/svg11.dtd"><svg t="1558577444653" class="icon" style="" viewBox="0 0 1024 1024" version="1.1" xmlns="http://www.w3.org/2000/svg" p-id="2001" xmlns:xlink="http://www.w3.org/1999/xlink" width="32" height="32"><defs><style type="text/css"></style></defs><path d="M516 820.8l-331.2-144c-4-1.6-8-1.6-12 0L29.6 741.6c-11.2 5.6-11.2 21.6 0 26.4l485.6 211.2c4 1.6 8 1.6 12 0L995.2 768c11.2-4.8 11.2-20.8 0.8-26.4L864 675.2c-4-2.4-8.8-2.4-12.8 0l-324 146.4c-3.2 0.8-8 0.8-11.2-0.8z m480-549.6L547.2 56c-8.8-4-19.2-4.8-28.8 0L29.6 272c-11.2 5.6-11.2 21.6 0 26.4l488.8 207.2c8.8 4 19.2 4 28-0.8l448-208c12-4.8 12-20 1.6-25.6z m27.2 13.6" fill="" p-id="2002"></path><path d="M516.8 598.4L183.2 452.8c-3.2-1.6-6.4-1.6-8.8 0L23.2 520.8c-8.8 4-8.8 16.8 0 20.8l493.6 215.2c3.2 1.6 6.4 1.6 9.6 0l475.2-215.2c8.8-4 8.8-16 0.8-20.8l-139.2-70.4c-3.2-1.6-6.4-1.6-9.6 0L526.4 597.6c-3.2 1.6-6.4 1.6-9.6 0.8z m4.8 1.6" fill="" p-id="2003"></path></svg>