<?xml version="1.0" encoding="utf-8"?>
<!-- Generator: Adobe Illustrator 18.1.0, SVG Export Plug-In . SVG Version: 6.00 Build 0)  -->
<svg version="1.1" id="图层_1" xmlns="http://www.w3.org/2000/svg" xmlns:xlink="http://www.w3.org/1999/xlink" x="0px" y="0px"
	 viewBox="80 -80 200 200" enable-background="new 80 -80 200 200" xml:space="preserve">
<path d="M268.9-12.8c-1.1-6.1-8.9-8.3-13.2-3.9l-37,36.9c-5.2,5.2-13.8,5.2-19.1,0l-19-19c-5.3-5.3-5.3-13.8,0-19L217.8-55
	c4.4-4.4,2.3-12.1-3.8-13.2c-21.8-4.2-45.2,2.1-62,19c-18.7,18.4-24.5,45-17.3,68.7c1.1,3.8,0.4,8-2.4,10.8L94.7,67.7
	c-5.2,5.2-5.2,13.8,0,19l19.1,19c5.2,5.2,13.8,5.2,19.1,0L170.8,68c2.8-2.8,6.9-3.7,10.8-2.5c23.5,6.9,49.8,1.1,68.4-17.4
	C266.5,31.5,272.8,8.6,268.9-12.8z"/>
</svg>
