<?xml version="1.0" encoding="utf-8"?>
<!-- Generator: Adobe Illustrator 18.1.0, SVG Export Plug-In . SVG Version: 6.00 Build 0)  -->
<svg version="1.1" id="图层_1" xmlns="http://www.w3.org/2000/svg" xmlns:xlink="http://www.w3.org/1999/xlink" x="0px" y="0px"
	 viewBox="80 -80 200 200" enable-background="new 80 -80 200 200" xml:space="preserve">
<path d="M256.4,120H103.6c-13,0-23.6-10.6-23.6-23.6V-56.4c0-13,10.6-23.6,23.6-23.6h71v19.4h-71c-2.3,0-4.2,1.9-4.2,4.2V96.4
	c0,2.3,1.9,4.2,4.2,4.2h152.8c2.3,0,4.2-1.9,4.2-4.2V7.7H280v88.7C280,109.4,269.4,120,256.4,120z M270.5-50l-19.4-19.4l5.2-5.3
	c5-5,13.2-5,18.3,0l1.1,1.1c5,5,5,13.2,0,18.2c0,0,0,0,0,0L270.5-50L270.5-50z"/>
<path d="M253.3-35.8L236-53.3l-80.8,81.6l-8.6,25.1l25.9-7.6L253.3-35.8z"/>
</svg>
