<?xml version="1.0" encoding="utf-8"?>
<!-- Generator: Adobe Illustrator 18.1.0, SVG Export Plug-In . SVG Version: 6.00 Build 0)  -->
<svg version="1.1" id="图层_1" xmlns="http://www.w3.org/2000/svg" xmlns:xlink="http://www.w3.org/1999/xlink" x="0px" y="0px"
	 viewBox="0 0 40 40" enable-background="new 0 0 40 40" xml:space="preserve">
<g>
	<g>
		<path d="M38.7,20.4C38.7,10,30.3,1.6,20,1.6S1.2,10,1.2,20.4S9.6,39.1,20,39.1C30.3,39.1,38.7,30.7,38.7,20.4L38.7,20.4z
			 M2.9,20.4c0-9.4,7.6-17,17-17s17,7.6,17,17s-7.6,17-17,17C10.6,37.4,2.9,29.8,2.9,20.4L2.9,20.4z"/>
	</g>
</g>
<path d="M23,17.3l-12-6l6,12l12,6L23,17.3z M18.3,22.1l-4.6-7.9l7.9,4.6L18.3,22.1z"/>
<polygon points="17,23.4 29,29.4 23,17.3 "/>
<path d="M18.3,26.6"/>
</svg>
