<?xml version="1.0" encoding="utf-8"?>
<!-- Generator: Adobe Illustrator 18.1.0, SVG Export Plug-In . SVG Version: 6.00 Build 0)  -->
<svg version="1.1" id="图层_1" xmlns="http://www.w3.org/2000/svg" xmlns:xlink="http://www.w3.org/1999/xlink" x="0px" y="0px"
	 viewBox="-3 5 32 32" enable-background="new -3 5 32 32" xml:space="preserve">
<path d="M2.4,27.5l4.3,4.3L8.4,30l-4.3-4.3l2.3-2.3l4.3,4.3l1.8-1.8l-4.3-4.3l2.3-2.3l5.9,5.9l1.8-1.8l-5.9-5.9l2.3-2.3l4.2,4.2
	l1.8-1.8l-4.2-4.2l2.3-2.3l5.7,5.7l1.8-1.8l-5.7-5.7L23,6.8L21.3,5l-24,24l1.8,1.8C-1,30.8,2.4,27.5,2.4,27.5z M23.9,32.1v1.1H2.1
	v-1.1h-4.9V37h4.9v-1.1h21.8V37h4.9v-4.9H23.9z"/>
</svg>
