<?xml version="1.0" encoding="utf-8"?>
<!-- Generator: Adobe Illustrator 18.1.0, SVG Export Plug-In . SVG Version: 6.00 Build 0)  -->
<svg version="1.1" id="图层_1" xmlns="http://www.w3.org/2000/svg" xmlns:xlink="http://www.w3.org/1999/xlink" x="0px" y="0px"
	 viewBox="-3 5 32 32" enable-background="new -3 5 32 32" xml:space="preserve">
<path d="M6.5,16.5l1.8-1.8l11.3,11.3l-1.8,1.8L6.5,16.5z"/>
<path d="M29,14.1V5h-9.2v3.2H6.1V5H-3v9.1h3.2v13.7H-3V37h9.1v-3.2h13.7V37H29v-9.1h-3.3V14.1H29z M22.8,8.1h3.1v3.1h-3.1V8.1z
	 M0,8.1h3v3.1H0L0,8.1z M3.1,34H0v-3.1h3L3.1,34z M25.9,34h-3v-3.1h3V34z M23.2,27.9h-3.3v3.2H6.1v-3.2H2.9V14.1h3.2v-3.2h13.7v3.2
	h3.3V27.9z"/>
</svg>
