<?xml version="1.0" encoding="utf-8"?>
<!-- Generator: Adobe Illustrator 18.1.0, SVG Export Plug-In . SVG Version: 6.00 Build 0)  -->
<svg version="1.1" id="图层_1" xmlns="http://www.w3.org/2000/svg" xmlns:xlink="http://www.w3.org/1999/xlink" x="0px" y="0px"
	 viewBox="-3 5 32 32" enable-background="new -3 5 32 32" xml:space="preserve">
<path d="M13.8,20.7c-0.1,0-0.1,0-0.2,0v0C13.7,20.7,13.8,20.7,13.8,20.7C13.8,20.7,13.8,20.7,13.8,20.7z M10.3,29.7L8,29.4
	c0.5-0.2,1-0.5,1.6-0.8C10.9,29.1,11.5,29.5,10.3,29.7z M24.7,26.1l-8.9-1.2c1.4-0.9,2.5-1.7,3.9-2.7c0.4,0.2,0.9,0.5,1.3,0.7
	c0.6-0.3,1.2-0.7,1.5-0.8c0.2-0.1,0.3-0.2,0.5-0.2c0.5,0,0.9,0.4,0.9,1c0,0.3-0.1,0.6-0.3,0.7l-0.6,0.5c0.4,0.2,0.7,0.4,0.9,0.6
	C25,25.4,25.1,25.7,24.7,26.1z M26.8,15.8c-0.8,0.7-4.3,3.2-8.3,6c-1.3,1-2.7,1.9-4.1,2.8c-2.2,1.5-4.3,2.8-5.9,3.7
	C8,28.7,7.4,29,7,29.2c-0.3,0.1-0.6,0.2-0.8,0.3c-0.8,0.2-2.3,0.4-1.7-0.7l-4.8-0.8C1,26.7,2.7,27.3,5,27.6c0.1,0,1.3,0.2,1.4,0.2
	c0,0,0.2-0.5-0.1-0.6c-0.2-0.1-0.9-0.1-0.8-0.1c-0.4-1.2-1.2-3.3-1.1-3.5c0.7-1.1,2.6,0.7,3.6,1.9c0.6-0.5,1.3-1.1,2-1.7L-2.3,20
	c0.5-0.5,0.8-0.7,2.7-0.6c1.1,0.1,6.4,0.6,10.7,1c0.5-0.4,0.7-0.6,0.9-0.7c0.2-0.1,0.4-0.3,0.8-0.3c0.4,0,0.8,0.3,0.9,0.6
	c0,0.1,0.1,0.2,0.1,0.4c0,0.1,0,0.2,0,0.3v0c0.1,0,1.3,0.1,1.4,0.1c0,0,0.3-0.5,0-0.6c-0.1,0-0.5,0-0.5,0s0,0,0,0
	c4.5-3.5,8.6-6.5,9.9-7.3c1.4-0.8,3.3-0.3,3.6,0.2C28.5,13.7,28.2,14.6,26.8,15.8z"/>
</svg>
