<?xml version="1.0" encoding="utf-8"?>
<!-- Generator: Adobe Illustrator 18.1.0, SVG Export Plug-In . SVG Version: 6.00 Build 0)  -->
<svg version="1.1" id="图层_1" xmlns="http://www.w3.org/2000/svg" xmlns:xlink="http://www.w3.org/1999/xlink" x="0px" y="0px"
	 viewBox="-3 5 32 32" enable-background="new -3 5 32 32" xml:space="preserve">
<path d="M0.1,15.4l2.2-2.1l1.3,1.3l-2.2,2.1l1.3,1.3l2.2-2.1l1.3,1.3l-2.2,2.1l0.5,1.1l7-7L6.8,8.2C6.1,7.5,4.7,7.7,3.9,8.4
	l-4.5,4.2C-1.3,13.3-1,14.3-0.3,15C-0.3,15,0.1,15.4,0.1,15.4z M-0.3,32.9c-0.2,0.5,0.3,0.9,0.8,0.7L8.6,31l-6.3-5.9
	C2.4,25.1-0.3,32.9-0.3,32.9z M26.3,14.4c0.7-0.6,0.7-1.7,0-2.2l-3.9-3.7c-0.7-0.6-1.7-0.6-2.4,0l-2.9,2.7l6.3,5.9
	C23.4,17.1,26.3,14.4,26.3,14.4z M16.3,12l-13,12.3l6.3,5.9l13-12.3C22.5,17.9,16.3,12,16.3,12z M26.5,26.8l-5.8-5.5l-7.2,6.8
	l1.3,1.3l2.2-2.1l1.3,1.3l-2.2,2.1l1.3,1.3l2.2-2.1l1.3,1.3l-2.2,2.1l0.4,0.4c0.7,0.7,1.7,0.9,2.5,0.2l4.5-4.2
	C27,28.9,27.3,27.5,26.5,26.8z"/>
</svg>
