<?xml version="1.0" encoding="utf-8"?>
<!-- Generator: Adobe Illustrator 18.1.0, SVG Export Plug-In . SVG Version: 6.00 Build 0)  -->
<svg version="1.1" xmlns="http://www.w3.org/2000/svg" xmlns:xlink="http://www.w3.org/1999/xlink" x="0px" y="0px"
	 viewBox="0 0 1024 1024" enable-background="new 0 0 1024 1024" xml:space="preserve">
<g id="图层_1" display="none">
</g>
<g id="图层_2">
	<g>
		<path d="M504.6,442.2h126v63.2h-126v126.4h-63V505.3h-126v-63.2h126V315.7h63L504.6,442.2L504.6,442.2z M719.2,792.9
			c-158.8,120.7-386.6,108.2-532.1-37.3C28.4,597,28,340.2,186.2,182c158.1-158.1,415-157.7,573.6,0.9
			C906,329.1,917.9,558.6,795.2,717.5l165.2,165.2l-75.7,75.7L719.2,792.9z M725.3,721.1c138.5-138.5,138.1-363.5-1-502.6
			C585.2,79.4,360.2,79,221.7,217.5C83.2,356,83.5,581.1,222.6,720.2C361.7,859.2,586.8,859.6,725.3,721.1L725.3,721.1z
			 M725.3,721.1"/>
		<path d="M504.6,442.2h126v63.2h-126v126.4h-63V505.3h-126v-63.2h126V315.7h63L504.6,442.2L504.6,442.2z"/>
	</g>
</g>
</svg>
