<?xml version="1.0" encoding="utf-8"?>
<!-- Generator: Adobe Illustrator 18.1.0, SVG Export Plug-In . SVG Version: 6.00 Build 0)  -->
<svg version="1.1" id="图层_1" xmlns="http://www.w3.org/2000/svg" xmlns:xlink="http://www.w3.org/1999/xlink" x="0px" y="0px"
	 viewBox="0 0 40 40" enable-background="new 0 0 40 40" xml:space="preserve">
<g>
	<path d="M30.3,24.9h-6.1l-3.7-4.6l-2.7,3.4l3.8,4.7c0.4,0.5,1,0.8,1.6,0.8h7.1v3.5l8.5-5.7l-8.5-5.7V24.9z"/>
	<path d="M3.3,13.5h6.1l3.7,4.6l2.7-3.4l-3.8-4.7c-0.4-0.5-1-0.8-1.6-0.8H3.3c-1.2,0-2.1,1-2.1,2.1C1.2,12.6,2.2,13.5,3.3,13.5z"/>
	<path d="M30.3,13.5v3.5l8.5-5.7l-8.5-5.7v3.5h-7.1c-0.6,0-1.2,0.3-1.6,0.8L9.4,24.9H3.3c-1.2,0-2.1,1-2.1,2.1c0,1.2,1,2.1,2.1,2.1
		h7.1c0.6,0,1.2-0.3,1.7-0.8l12.1-14.8H30.3z"/>
</g>
</svg>
