<?xml version="1.0" encoding="utf-8"?>
<!-- Generator: Adobe Illustrator 18.1.0, SVG Export Plug-In . SVG Version: 6.00 Build 0)  -->
<svg version="1.1" id="图层_1" xmlns="http://www.w3.org/2000/svg" xmlns:xlink="http://www.w3.org/1999/xlink" x="0px" y="0px"
	 viewBox="99 -80 238.3 200" enable-background="new 99 -80 238.3 200" xml:space="preserve">
<path d="M304.3,30.9v60.8c0,10.8,1,20.6-6.7,23.8c-5.8,2.4-27.1,0.8-35.3,0.8h-82.9c-10.4,0-31.9,2-37.6-2.6
	c-6-4.8-3.9-21.7-3.8-32.2l-25.8,7.7c-3.1,0.8-7.5,3.2-10.5,1c-3.6-2.6-2-14.7-2-20.7V22c0-5.3-1.6-16.2,0.8-19.9
	c2-3.1,6.3-2.1,9.7-1l27.9,8.4c-0.2-13.5-2.7-31.5,7.9-34.5l18.7-0.3L175.3-44c7-11.9,11.4-25.4,25.1-30.7
	c9.3-3.6,34.1-1.5,46.8-1.5c14.9,0,41.6-3.9,45.3,7.4c0.7,2.2,0.1,5.1-0.5,6.6c-3,7.4-9.3,6.9-19.7,6.9l-64.7,0.3
	c-5,1.7-17.2,23.8-19.2,29.6h80.1c8.4,0,26-1.7,31,1.8c5.1,3.6,3.3,8.1,5.1,15.3c4,0.1,10.6,0.9,13.6-0.5c2-9.1,17.1-8.7,19.2,0
	v30.9c0,4.2,0.5,9.3-1.3,11.8c-4.9,6.9-15.8,4.6-18.2-3.1L304.3,30.9L304.3,30.9z M216.7,67.4c-6.1,2.8-10.5,4.5-12.8,11
	c-3.8,10.8,5.7,23.9,16.9,22C241.1,96.9,240.3,66.9,216.7,67.4z M268.7,67.4c-6.5,2.9-10.9,4.8-13.1,12
	c-3.5,11.9,6.8,23.2,18.7,20.7C293,96.1,291.6,66.9,268.7,67.4z"/>
</svg>
