<?xml version="1.0" encoding="utf-8"?>
<!-- Generator: Adobe Illustrator 18.1.0, SVG Export Plug-In . SVG Version: 6.00 Build 0)  -->
<svg version="1.0" id="图层_1" xmlns="http://www.w3.org/2000/svg" xmlns:xlink="http://www.w3.org/1999/xlink" x="0px" y="0px"
	 viewBox="0 0 60 60" enable-background="new 0 0 60 60" xml:space="preserve">
<g id="_x32__4_">
	<path fill="#083290" d="M30.032,0.903c-16.064,0-29.086,13.022-29.086,29.086s13.022,29.086,29.086,29.086
		s29.086-13.022,29.086-29.086S46.095,0.903,30.032,0.903z M30.032,57.911c-15.421,0-27.923-12.501-27.923-27.923
		S14.61,2.066,30.032,2.066s27.923,12.501,27.923,27.923S45.453,57.911,30.032,57.911z"/>
	<path fill="#083290" d="M30.011,8.476C18.124,8.476,8.487,18.113,8.487,30s9.636,21.524,21.524,21.524S51.535,41.887,51.535,30
		S41.898,8.476,30.011,8.476z M30.011,50.942C18.445,50.942,9.069,41.566,9.069,30S18.445,9.058,30.011,9.058
		S50.953,18.434,50.953,30S41.577,50.942,30.011,50.942z"/>
	<circle fill="#083290" cx="30.011" cy="30" r="19.778"/>
	<g>
		<path fill="#083290" stroke="#0E3481" stroke-width="0.5" stroke-miterlimit="10" d="M4.005,35.735l0.099-0.032
			c0.031,0.094,0.073,0.165,0.126,0.213c0.053,0.047,0.135,0.083,0.244,0.106c0.074,0.015,0.241,0.022,0.5,0.022l3.245,0.051
			l0.035,0.107l-2.041,1.582l2.58,0.06l0.032,0.096l-2.649,2.06c-0.198,0.154-0.313,0.248-0.347,0.282
			c-0.056,0.058-0.09,0.123-0.103,0.195c-0.013,0.072-0.002,0.161,0.033,0.266l-0.099,0.032l-0.439-1.338l0.099-0.032l0.021,0.064
			c0.031,0.094,0.076,0.159,0.135,0.195c0.059,0.036,0.119,0.044,0.179,0.024c0.062-0.02,0.192-0.107,0.391-0.258l1.795-1.378
			l-1.922-0.033l-0.269,0.206l-0.214,0.165c-0.077,0.067-0.141,0.134-0.193,0.202c-0.026,0.034-0.045,0.072-0.057,0.113
			c-0.017,0.055-0.026,0.107-0.026,0.156c0,0.037,0.013,0.092,0.036,0.165l-0.099,0.032l-0.462-1.407l0.099-0.032l0.031,0.096
			c0.033,0.1,0.078,0.166,0.136,0.198c0.058,0.032,0.123,0.036,0.196,0.012c0.091-0.03,0.236-0.122,0.435-0.276l1.737-1.338
			L5.05,36.275c-0.246-0.006-0.412,0.005-0.497,0.033c-0.041,0.013-0.075,0.039-0.102,0.076c-0.027,0.037-0.041,0.078-0.043,0.122
			c-0.003,0.076,0.014,0.168,0.049,0.276l-0.099,0.032L4.005,35.735z"/>
		<path fill="#083290" stroke="#0E3481" stroke-width="0.5" stroke-miterlimit="10" d="M6.044,29.919l0.028,1.473l0.605,0.247
			c0.149,0.061,0.26,0.09,0.333,0.089c0.058-0.001,0.108-0.03,0.151-0.086c0.043-0.056,0.069-0.176,0.079-0.359l0.104-0.002
			l0.023,1.198L7.264,32.48c-0.031-0.158-0.07-0.261-0.115-0.306c-0.092-0.094-0.276-0.196-0.553-0.306L3.439,30.59l-0.002-0.098
			l3.138-1.385c0.252-0.112,0.415-0.212,0.49-0.3c0.074-0.088,0.114-0.21,0.121-0.366l0.104-0.002l0.029,1.501l-0.104,0.002
			c-0.01-0.151-0.038-0.253-0.082-0.306s-0.097-0.078-0.159-0.077c-0.082,0.002-0.212,0.042-0.388,0.12L6.044,29.919z M5.838,30.002
			l-1.525,0.675l1.55,0.632L5.838,30.002z"/>
		<path fill="#083290" stroke="#0E3481" stroke-width="0.5" stroke-miterlimit="10" d="M4.802,21.592l0.101,0.025
			c-0.009,0.137,0.008,0.246,0.051,0.328c0.065,0.118,0.179,0.238,0.344,0.358l2.818,2.075L8.09,24.479l-3.528,0.584
			c-0.181,0.03-0.293,0.055-0.337,0.075c-0.068,0.031-0.126,0.076-0.174,0.134c-0.048,0.058-0.091,0.142-0.128,0.253L3.822,25.5
			L4.2,23.992l0.101,0.025c-0.026,0.175-0.025,0.293,0.004,0.354c0.029,0.061,0.076,0.1,0.141,0.117
			c0.091,0.023,0.243,0.017,0.456-0.019l2.399-0.396l-1.918-1.407c-0.189-0.138-0.324-0.217-0.406-0.238
			c-0.053-0.013-0.109,0-0.171,0.041C4.745,22.51,4.689,22.59,4.637,22.71c-0.004,0.009-0.011,0.023-0.02,0.044l-0.101-0.025
			L4.802,21.592z"/>
		<path fill="#083290" stroke="#0E3481" stroke-width="0.5" stroke-miterlimit="10" d="M7.058,17.173l1.296,0.762l0.424-0.721
			c0.11-0.187,0.155-0.329,0.136-0.425c-0.025-0.127-0.128-0.251-0.309-0.371l0.053-0.089l1.142,0.671L9.746,17.09
			c-0.173-0.071-0.289-0.109-0.347-0.113c-0.074-0.004-0.146,0.017-0.217,0.064c-0.071,0.047-0.147,0.139-0.228,0.276l-0.424,0.721
			l1.081,0.636c0.145,0.085,0.237,0.131,0.276,0.136c0.039,0.006,0.077-0.002,0.115-0.024s0.083-0.077,0.136-0.167l0.327-0.556
			c0.109-0.185,0.175-0.328,0.199-0.427c0.024-0.099,0.02-0.21-0.01-0.331c-0.041-0.159-0.132-0.35-0.272-0.573l0.057-0.097
			l0.656,0.766L9.61,19.93L9.52,19.877l0.068-0.116c0.045-0.077,0.07-0.162,0.074-0.253c0.005-0.067-0.013-0.125-0.054-0.173
			s-0.141-0.12-0.301-0.214l-2.131-1.253c-0.208-0.122-0.349-0.177-0.422-0.163c-0.099,0.02-0.188,0.098-0.267,0.233l-0.068,0.116
			L6.33,18.002l1.486-2.528l0.74,0.386L8.5,15.954c-0.193-0.068-0.333-0.1-0.422-0.097c-0.089,0.003-0.174,0.035-0.255,0.096
			c-0.062,0.05-0.141,0.157-0.237,0.32L7.058,17.173z"/>
		<path fill="#083290" stroke="#0E3481" stroke-width="0.5" stroke-miterlimit="10" d="M10.269,12.204l0.751-0.709l3.65,0.479
			l-1.506-1.596c-0.161-0.17-0.28-0.258-0.358-0.264c-0.104-0.01-0.211,0.037-0.32,0.14l-0.096,0.09l-0.071-0.076l0.963-0.909
			l0.071,0.075l-0.098,0.092c-0.117,0.11-0.167,0.224-0.149,0.341c0.011,0.072,0.09,0.185,0.236,0.34l2.201,2.333l-0.074,0.069
			l-3.927-0.507l1.608,1.704c0.161,0.17,0.279,0.259,0.356,0.266c0.106,0.008,0.212-0.038,0.32-0.14l0.098-0.092l0.071,0.076
			l-0.963,0.909l-0.071-0.076l0.096-0.09c0.118-0.112,0.169-0.226,0.151-0.343c-0.011-0.072-0.09-0.185-0.236-0.34l-1.816-1.924
			c-0.169-0.018-0.288-0.023-0.358-0.013c-0.07,0.009-0.157,0.039-0.262,0.089c-0.051,0.025-0.117,0.075-0.197,0.151L10.269,12.204z
			"/>
		<path fill="#083290" stroke="#0E3481" stroke-width="0.5" stroke-miterlimit="10" d="M17.563,6.839l0.685,1.339l0.744-0.381
			c0.193-0.099,0.307-0.194,0.342-0.285c0.047-0.121,0.027-0.28-0.062-0.479l0.092-0.047l0.603,1.179l-0.092,0.047
			c-0.108-0.153-0.185-0.247-0.232-0.281c-0.06-0.043-0.132-0.064-0.218-0.062c-0.085,0.002-0.199,0.039-0.34,0.111L18.341,8.36
			l0.571,1.117c0.077,0.15,0.13,0.238,0.16,0.263c0.03,0.026,0.067,0.04,0.11,0.042c0.043,0.002,0.111-0.021,0.205-0.068
			l0.574-0.294c0.192-0.098,0.324-0.182,0.397-0.253C20.43,9.095,20.487,9,20.527,8.881c0.05-0.156,0.077-0.366,0.078-0.629
			l0.1-0.051l0.142,0.999l-2.61,1.335l-0.047-0.092l0.12-0.061c0.08-0.041,0.146-0.099,0.198-0.174
			c0.04-0.054,0.056-0.112,0.047-0.175C18.546,9.968,18.5,9.854,18.416,9.69L17.29,7.489c-0.11-0.215-0.199-0.336-0.268-0.364
			c-0.094-0.036-0.211-0.018-0.351,0.053l-0.12,0.061l-0.047-0.092l2.611-1.335l0.417,0.723l-0.097,0.05
			c-0.126-0.16-0.227-0.263-0.304-0.308c-0.077-0.045-0.165-0.064-0.267-0.056c-0.079,0.009-0.203,0.057-0.371,0.143L17.563,6.839z"
			/>
		<path fill="#083290" stroke="#0E3481" stroke-width="0.5" stroke-miterlimit="10" d="M26.25,3.727l0.219,0.866l-0.104,0.021
			c-0.052-0.15-0.101-0.254-0.15-0.313c-0.078-0.095-0.17-0.158-0.275-0.189c-0.105-0.031-0.234-0.031-0.388,0l-0.525,0.107
			l0.579,2.849c0.046,0.229,0.1,0.367,0.161,0.414c0.085,0.063,0.2,0.079,0.345,0.05l0.129-0.026l0.021,0.102l-1.581,0.321
			l-0.021-0.102l0.132-0.027c0.158-0.032,0.26-0.102,0.306-0.211c0.028-0.067,0.021-0.205-0.021-0.414l-0.579-2.848l-0.448,0.091
			c-0.174,0.035-0.295,0.073-0.363,0.114c-0.088,0.054-0.156,0.138-0.204,0.25c-0.048,0.113-0.061,0.255-0.039,0.426L23.34,5.228
			l-0.134-0.883L26.25,3.727z"/>
		<path fill="#083290" stroke="#0E3481" stroke-width="0.5" stroke-miterlimit="10" d="M36.54,4.209l-0.272,1.288l-0.102-0.021
			c0.019-0.254,0.002-0.463-0.053-0.628c-0.054-0.164-0.151-0.306-0.29-0.425c-0.139-0.119-0.293-0.197-0.462-0.232
			c-0.19-0.04-0.36-0.015-0.509,0.075c-0.149,0.09-0.239,0.209-0.271,0.357c-0.024,0.114-0.006,0.225,0.053,0.335
			c0.085,0.161,0.316,0.401,0.694,0.72c0.308,0.26,0.515,0.454,0.622,0.58c0.106,0.127,0.179,0.265,0.219,0.415
			c0.04,0.15,0.044,0.299,0.013,0.447c-0.06,0.282-0.22,0.502-0.482,0.66c-0.262,0.158-0.565,0.201-0.909,0.128
			c-0.108-0.023-0.208-0.053-0.299-0.089c-0.055-0.021-0.165-0.079-0.332-0.175c-0.166-0.095-0.273-0.148-0.321-0.158
			c-0.046-0.01-0.085-0.004-0.117,0.018c-0.032,0.022-0.064,0.074-0.095,0.158l-0.102-0.021l0.27-1.276l0.102,0.021
			c-0.009,0.277,0.013,0.491,0.065,0.64c0.053,0.15,0.152,0.286,0.299,0.409c0.147,0.123,0.319,0.205,0.517,0.247
			c0.229,0.048,0.422,0.026,0.581-0.067c0.158-0.093,0.255-0.222,0.289-0.386c0.019-0.091,0.014-0.189-0.017-0.293
			c-0.03-0.104-0.09-0.207-0.18-0.31c-0.06-0.07-0.23-0.228-0.511-0.473c-0.281-0.246-0.477-0.436-0.589-0.57
			c-0.112-0.134-0.189-0.273-0.232-0.416c-0.043-0.143-0.047-0.291-0.015-0.445c0.056-0.267,0.207-0.476,0.453-0.625
			c0.246-0.15,0.527-0.191,0.844-0.124c0.198,0.042,0.397,0.134,0.598,0.278c0.093,0.067,0.16,0.106,0.202,0.114
			c0.047,0.01,0.089,0.004,0.126-0.018c0.036-0.022,0.072-0.074,0.109-0.156L36.54,4.209z"/>
		<path fill="#083290" stroke="#0E3481" stroke-width="0.5" stroke-miterlimit="10" d="M41.596,6.073
			c0.445,0.215,0.748,0.57,0.911,1.065c0.163,0.495,0.121,0.995-0.123,1.501c-0.252,0.52-0.625,0.873-1.119,1.057
			c-0.494,0.185-0.975,0.164-1.441-0.061c-0.472-0.228-0.787-0.587-0.945-1.077c-0.159-0.49-0.109-1.001,0.148-1.534
			c0.263-0.544,0.663-0.898,1.2-1.062C40.692,5.819,41.148,5.857,41.596,6.073z M41.459,6.234c-0.307-0.148-0.607-0.154-0.902-0.016
			c-0.368,0.171-0.683,0.53-0.947,1.075c-0.271,0.559-0.359,1.047-0.266,1.464c0.073,0.318,0.26,0.55,0.561,0.695
			c0.321,0.156,0.648,0.159,0.979,0.009c0.331-0.15,0.627-0.495,0.889-1.035c0.283-0.586,0.379-1.079,0.288-1.478
			C41.986,6.631,41.786,6.392,41.459,6.234z"/>
		<path fill="#083290" stroke="#0E3481" stroke-width="0.5" stroke-miterlimit="10" d="M46.437,9.475l-0.954,1.152l0.534,0.442
			c0.122,0.101,0.234,0.149,0.336,0.142c0.102-0.007,0.228-0.083,0.379-0.227l0.08,0.066l-0.821,0.992l-0.08-0.066
			c0.093-0.115,0.147-0.211,0.163-0.287c0.016-0.077,0.01-0.149-0.017-0.217c-0.028-0.068-0.09-0.142-0.188-0.223l-0.534-0.442
			l-0.762,0.921c-0.123,0.149-0.195,0.254-0.215,0.317c-0.015,0.048-0.011,0.104,0.014,0.168c0.035,0.087,0.087,0.159,0.156,0.217
			l0.106,0.088l-0.066,0.08l-1.258-1.041l0.066-0.08l0.104,0.086c0.121,0.1,0.238,0.138,0.351,0.112
			c0.073-0.017,0.182-0.114,0.327-0.29l1.567-1.893c0.123-0.148,0.195-0.254,0.215-0.317c0.015-0.048,0.011-0.103-0.012-0.166
			c-0.033-0.086-0.085-0.158-0.156-0.216l-0.104-0.086l0.066-0.08l2.181,1.805l-0.505,0.667l-0.076-0.063
			c0.076-0.168,0.115-0.304,0.119-0.41c0.003-0.105-0.019-0.202-0.068-0.291c-0.049-0.089-0.15-0.197-0.302-0.323L46.437,9.475z"/>
		<path fill="#083290" stroke="#0E3481" stroke-width="0.5" stroke-miterlimit="10" d="M52.012,15.156l-0.683,0.576l-0.065-0.085
			c0.112-0.112,0.184-0.202,0.216-0.271c0.051-0.112,0.068-0.222,0.05-0.33c-0.018-0.108-0.074-0.224-0.17-0.349l-0.326-0.426
			l-2.308,1.767c-0.186,0.142-0.286,0.251-0.301,0.326c-0.019,0.104,0.016,0.215,0.106,0.332l0.08,0.105l-0.082,0.063l-0.981-1.281
			l0.082-0.063l0.082,0.107c0.098,0.128,0.206,0.189,0.324,0.183c0.073-0.004,0.193-0.07,0.363-0.2l2.308-1.767l-0.278-0.363
			c-0.108-0.141-0.195-0.233-0.261-0.277c-0.087-0.056-0.192-0.08-0.314-0.074c-0.122,0.007-0.256,0.057-0.4,0.151l-0.065-0.085
			l0.736-0.507L52.012,15.156z"/>
		<path fill="#083290" stroke="#0E3481" stroke-width="0.5" stroke-miterlimit="10" d="M55.623,22.698l-0.097,0.038
			c-0.036-0.092-0.083-0.16-0.139-0.205c-0.056-0.044-0.139-0.074-0.25-0.091c-0.075-0.011-0.241-0.008-0.501,0.009l-3.242,0.147
			l-0.041-0.104l1.94-1.704l-2.579,0.098l-0.037-0.094l2.518-2.218c0.188-0.165,0.298-0.266,0.329-0.303
			c0.052-0.061,0.082-0.128,0.091-0.201c0.008-0.073-0.008-0.16-0.049-0.263l0.096-0.038l0.52,1.309l-0.096,0.038l-0.025-0.063
			c-0.037-0.092-0.086-0.154-0.146-0.186c-0.061-0.032-0.121-0.036-0.18-0.013c-0.061,0.024-0.186,0.118-0.374,0.282l-1.707,1.485
			l1.92-0.084l0.256-0.222l0.204-0.178c0.072-0.071,0.132-0.142,0.181-0.214c0.024-0.036,0.041-0.075,0.05-0.117
			c0.014-0.056,0.019-0.108,0.016-0.157c-0.003-0.037-0.018-0.091-0.046-0.163l0.096-0.038l0.547,1.377l-0.096,0.038l-0.037-0.094
			c-0.039-0.097-0.088-0.16-0.147-0.189c-0.06-0.029-0.125-0.029-0.197-0.001c-0.089,0.035-0.228,0.136-0.417,0.302l-1.652,1.442
			l2.215-0.101c0.246-0.009,0.411-0.03,0.494-0.064c0.04-0.016,0.072-0.043,0.097-0.082c0.025-0.039,0.036-0.08,0.035-0.124
			c-0.002-0.076-0.024-0.167-0.066-0.273l0.097-0.038L55.623,22.698z"/>
		<path fill="#083290" stroke="#0E3481" stroke-width="0.5" stroke-miterlimit="10" d="M53.874,27.753l-0.17-1.463l-0.626-0.187
			c-0.154-0.046-0.267-0.065-0.34-0.056c-0.058,0.007-0.105,0.04-0.142,0.1c-0.037,0.06-0.052,0.182-0.044,0.365l-0.103,0.012
			l-0.138-1.19l0.103-0.012c0.046,0.155,0.094,0.253,0.144,0.294c0.1,0.084,0.294,0.168,0.58,0.252l3.265,0.968l0.011,0.098
			l-2.991,1.681c-0.24,0.135-0.393,0.251-0.458,0.346c-0.065,0.095-0.093,0.22-0.085,0.376l-0.103,0.012l-0.173-1.491l0.103-0.012
			c0.025,0.15,0.062,0.248,0.111,0.296c0.049,0.048,0.104,0.068,0.165,0.061c0.082-0.01,0.206-0.062,0.374-0.157L53.874,27.753z
			 M54.072,27.651l1.453-0.819l-1.604-0.48L54.072,27.651z"/>
		<path fill="#083290" stroke="#0E3481" stroke-width="0.5" stroke-miterlimit="10" d="M52.219,35.059l0.138-1.006l1.937-1.034
			c0.009-0.095,0.018-0.172,0.026-0.231c0.003-0.024,0.007-0.05,0.012-0.078s0.01-0.056,0.016-0.086l-1.095-0.15
			c-0.237-0.032-0.388-0.027-0.453,0.017c-0.091,0.059-0.146,0.159-0.166,0.3l-0.02,0.147l-0.103-0.014l0.221-1.615l0.103,0.014
			l-0.019,0.142c-0.022,0.159,0.014,0.281,0.109,0.363c0.052,0.047,0.186,0.085,0.401,0.114l2.435,0.334
			c0.237,0.032,0.388,0.027,0.453-0.017c0.092-0.061,0.147-0.163,0.167-0.306l0.019-0.142l0.103,0.014l-0.188,1.373
			c-0.055,0.4-0.125,0.691-0.209,0.873c-0.084,0.182-0.214,0.328-0.389,0.439s-0.371,0.152-0.587,0.122
			c-0.232-0.032-0.422-0.135-0.572-0.309c-0.15-0.174-0.238-0.425-0.265-0.751l-1.188,0.63c-0.273,0.144-0.459,0.274-0.558,0.391
			c-0.099,0.117-0.174,0.276-0.224,0.479L52.219,35.059z M54.524,32.648c-0.005,0.035-0.01,0.066-0.014,0.092
			s-0.008,0.047-0.01,0.064c-0.049,0.36-0.009,0.641,0.122,0.845c0.131,0.204,0.316,0.322,0.557,0.355
			c0.235,0.032,0.437-0.015,0.604-0.142c0.168-0.127,0.268-0.312,0.301-0.555c0.015-0.107,0.017-0.255,0.007-0.444L54.524,32.648z"
			/>
		<path fill="#083290" stroke="#0E3481" stroke-width="0.5" stroke-miterlimit="10" d="M54.646,39.198l-1.397-0.556l-0.309,0.777
			c-0.08,0.202-0.103,0.348-0.07,0.44c0.044,0.122,0.165,0.229,0.362,0.319l-0.038,0.097l-1.23-0.49l0.038-0.097
			c0.182,0.044,0.302,0.064,0.36,0.059c0.073-0.007,0.141-0.039,0.205-0.097c0.063-0.058,0.124-0.16,0.183-0.308l0.309-0.777
			l-1.165-0.464c-0.157-0.062-0.254-0.093-0.294-0.093c-0.039,0-0.076,0.014-0.11,0.041c-0.034,0.027-0.07,0.089-0.109,0.186
			l-0.239,0.6c-0.079,0.2-0.123,0.351-0.131,0.452c-0.008,0.101,0.012,0.21,0.061,0.326c0.065,0.151,0.184,0.326,0.356,0.525
			l-0.041,0.104l-0.765-0.658l1.084-2.724l0.096,0.038l-0.05,0.125c-0.033,0.083-0.045,0.171-0.034,0.261
			c0.006,0.067,0.032,0.121,0.08,0.163c0.048,0.042,0.158,0.097,0.33,0.166l2.297,0.914c0.224,0.089,0.371,0.121,0.441,0.097
			c0.094-0.035,0.171-0.125,0.229-0.271l0.05-0.125l0.097,0.038l-1.084,2.724l-0.79-0.269l0.04-0.102
			c0.2,0.037,0.344,0.048,0.431,0.031c0.087-0.017,0.166-0.061,0.237-0.134c0.054-0.059,0.116-0.177,0.185-0.352L54.646,39.198z"/>
	</g>
	<g>
		<path fill="#083290" stroke="#0E3481" stroke-width="0.5" stroke-miterlimit="10" d="M20.764,54.045l-0.54,0.562l-2.052-0.909
			l0.042-0.095c0.848-0.283,1.472-0.545,1.873-0.785c0.401-0.24,0.665-0.504,0.793-0.793c0.098-0.221,0.11-0.432,0.038-0.634
			c-0.072-0.202-0.202-0.344-0.39-0.428C20.356,50.888,20.18,50.87,20,50.909c-0.18,0.04-0.346,0.142-0.496,0.306l-0.095-0.042
			c0.183-0.297,0.4-0.492,0.652-0.582c0.252-0.091,0.511-0.078,0.776,0.04c0.282,0.125,0.478,0.32,0.586,0.585
			c0.109,0.265,0.108,0.521-0.001,0.767c-0.078,0.176-0.197,0.334-0.357,0.474c-0.249,0.221-0.585,0.423-1.005,0.607
			c-0.632,0.277-1.022,0.439-1.171,0.488l0.908,0.402c0.185,0.082,0.317,0.132,0.398,0.152c0.08,0.019,0.16,0.021,0.238,0.006
			c0.078-0.015,0.157-0.052,0.235-0.109L20.764,54.045z"/>
		<path fill="#083290" stroke="#0E3481" stroke-width="0.5" stroke-miterlimit="10" d="M25.614,54.224
			c0.055-0.43,0.168-0.793,0.338-1.087c0.17-0.294,0.372-0.503,0.607-0.628c0.183-0.099,0.363-0.137,0.541-0.114
			c0.289,0.037,0.53,0.218,0.722,0.543c0.241,0.403,0.321,0.916,0.24,1.542c-0.056,0.438-0.167,0.802-0.333,1.092
			c-0.166,0.29-0.355,0.491-0.569,0.604c-0.213,0.113-0.411,0.158-0.593,0.134c-0.36-0.046-0.632-0.297-0.817-0.753
			C25.595,55.173,25.549,54.729,25.614,54.224z M26.151,54.364c-0.067,0.519-0.057,0.952,0.029,1.296
			c0.07,0.29,0.21,0.449,0.42,0.476c0.1,0.013,0.21-0.019,0.329-0.095c0.119-0.076,0.22-0.216,0.303-0.421
			c0.126-0.308,0.227-0.753,0.301-1.333c0.055-0.43,0.057-0.795,0.005-1.094c-0.039-0.222-0.106-0.384-0.201-0.487
			c-0.068-0.071-0.156-0.113-0.264-0.127c-0.126-0.016-0.246,0.026-0.359,0.126c-0.153,0.137-0.275,0.367-0.366,0.691
			C26.258,53.72,26.192,54.043,26.151,54.364z"/>
		<path fill="#083290" stroke="#0E3481" stroke-width="0.5" stroke-miterlimit="10" d="M32.579,54.473
			c-0.068-0.428-0.062-0.808,0.019-1.138c0.08-0.33,0.216-0.588,0.406-0.773c0.147-0.146,0.31-0.234,0.487-0.262
			c0.288-0.046,0.57,0.06,0.846,0.318c0.344,0.319,0.565,0.789,0.664,1.412c0.069,0.436,0.065,0.816-0.012,1.141
			c-0.078,0.325-0.203,0.571-0.376,0.74c-0.173,0.169-0.35,0.267-0.531,0.296c-0.358,0.057-0.69-0.108-0.995-0.493
			C32.827,55.389,32.659,54.975,32.579,54.473z M33.133,54.456c0.082,0.517,0.212,0.929,0.392,1.236
			c0.149,0.259,0.328,0.371,0.536,0.338c0.1-0.016,0.196-0.077,0.289-0.184c0.093-0.106,0.151-0.27,0.173-0.489
			c0.035-0.331,0.006-0.786-0.085-1.364c-0.068-0.428-0.169-0.779-0.303-1.051c-0.1-0.202-0.21-0.339-0.329-0.411
			c-0.086-0.049-0.182-0.065-0.289-0.048c-0.126,0.02-0.228,0.094-0.308,0.222c-0.109,0.174-0.161,0.43-0.157,0.766
			C33.055,53.808,33.083,54.136,33.133,54.456z"/>
		<path fill="#083290" stroke="#0E3481" stroke-width="0.5" stroke-miterlimit="10" d="M42.014,52.731l0.076,0.776l-2.025,0.969
			l-0.045-0.094c0.336-0.828,0.543-1.473,0.621-1.933c0.078-0.461,0.049-0.833-0.087-1.118c-0.104-0.218-0.257-0.365-0.457-0.441
			c-0.2-0.076-0.393-0.07-0.579,0.019c-0.169,0.081-0.296,0.203-0.383,0.366c-0.087,0.163-0.117,0.355-0.09,0.576l-0.094,0.045
			c-0.107-0.332-0.113-0.624-0.019-0.874c0.095-0.251,0.273-0.438,0.534-0.564c0.278-0.133,0.554-0.155,0.826-0.066
			c0.272,0.09,0.466,0.256,0.582,0.499c0.083,0.174,0.126,0.367,0.128,0.579c0.006,0.333-0.058,0.719-0.192,1.159
			c-0.2,0.66-0.33,1.062-0.39,1.207l0.896-0.429c0.182-0.087,0.307-0.155,0.374-0.204c0.067-0.049,0.12-0.108,0.159-0.177
			c0.039-0.07,0.063-0.153,0.07-0.25L42.014,52.731z"/>
	</g>
	<g>
		<path fill="#FFFFFF" stroke="#FFFFFF" stroke-miterlimit="10" d="M15.567,19.676c1.208,0.73,2.027,2.151,2.453,4.259
			c0.283,1.137,0.035,2.151-0.747,3.042c-0.57,0.812-1.138,1.624-1.707,2.434c-0.213,0.325-0.357,0.568-0.427,0.73
			c-0.357,0.243-0.533-0.04-0.533-0.852c0.07-0.405,0.64-1.46,1.707-3.164c0.142-0.243,0.248-0.405,0.32-0.487
			c0.283-0.243,0.39-0.852,0.32-1.825c0-0.648-0.357-1.339-1.067-2.069c-0.498-0.567-0.747-1.053-0.747-1.46
			C14.997,19.961,15.14,19.758,15.567,19.676z M17.274,29.412c0.142,0.407,0.142,1.137,0,2.19c-0.072,0.407-0.143,1.095-0.213,2.069
			c-0.072,0.407-0.107,0.73-0.107,0.974c0,1.704-0.072,3.449-0.213,5.233c0,0.164-0.037,0.487-0.107,0.974c0,0.323,0,0.527,0,0.608
			c0,0.323-0.107,0.567-0.32,0.73c-0.143,0.08-0.25-0.042-0.32-0.365c-0.143-0.974-0.178-2.392-0.107-4.259
			c0.213-4.056,0.497-6.773,0.853-8.154c0.07-0.243,0.177-0.365,0.32-0.365C17.13,29.047,17.202,29.169,17.274,29.412z
			 M17.38,17.729c1.422,1.055,2.275,2.759,2.56,5.111c0,0.243,0.07,0.243,0.213,0c0.782-0.974,0.427-2.636-1.067-4.99
			c-0.072-0.162-0.213-0.365-0.427-0.609c-0.143-0.323-0.25-0.567-0.32-0.73c-0.143-0.567,0-0.81,0.427-0.73
			c0.71,0.082,1.422,1.015,2.133,2.799c0.568,1.46,0.817,2.556,0.747,3.286c0,1.055-0.463,1.867-1.387,2.434
			c-0.285,0.082-0.427,0.243-0.427,0.487c0,0.164-0.037,0.407-0.107,0.73c-0.143,0.569-0.25,1.055-0.32,1.46
			c-0.285,1.867-0.463,3.651-0.533,5.355c-0.072,2.677-0.037,5.355,0.107,8.032c0.213,1.135,0.283,3.3,0.213,4.03
			c-0.072,0.243-0.213,0.405-0.427,0.487c-0.213,0.08-0.32,0-0.32-0.243c-0.426-1.785-0.605-5.084-0.533-7.438
			c-0.072-3.894,0.142-7.585,0.64-11.075c0.213-0.892,0.283-1.622,0.213-2.191c0-1.379-0.463-2.635-1.387-3.773
			c-0.498-0.73-0.747-1.5-0.747-2.312c0-0.243,0.07-0.405,0.213-0.487C16.989,17.364,17.167,17.486,17.38,17.729z M20.687,29.899
			c-0.072,1.867,0.035,4.098,0.32,6.693c0.283,2.191,0.39,3.611,0.32,4.259c0,0.243-0.107,0.405-0.32,0.487
			c-0.213,0.08-0.357-0.042-0.427-0.365c-0.498-2.595-0.818-5.8-0.96-9.614c0.07-1.622,0.248-2.677,0.533-3.164
			c0.213-0.243,0.39-0.202,0.533,0.122C20.829,28.398,20.829,28.925,20.687,29.899z M23.78,16.383c0.923,0,1.563,0.487,1.92,1.46
			c0.213,1.055,0.283,1.989,0.213,2.799c-0.143,0.974-0.818,1.582-2.027,1.826c-0.64,0.164-0.925,0.73-0.853,1.704
			c0.427,2.597,0.568,5.355,0.427,8.275c-0.072,4.463-0.533,10.211-1.387,12.32c-0.072,0.243-0.213,0.939-0.427,0.859
			c-0.213-0.082-0.32-0.285-0.32-0.609c-0.072-0.164,0.107-4.459,0.533-6.729c0.568-2.757,0.782-5.76,0.64-9.006
			c0-1.784-0.143-3.204-0.427-4.259c-0.072-0.08-0.107-0.608-0.107-1.582c0.213-1.217,0.782-1.987,1.707-2.312
			c0.923-0.08,1.35-0.688,1.28-1.825c-0.072-0.892-0.498-1.339-1.28-1.339c-0.427-0.08-0.783-0.04-1.067,0.122
			c-0.427,0.243-0.677,0.164-0.747-0.243c-0.213-0.73,0-1.909,0-1.909s0.39-0.16,0.747,0.084
			C22.677,16.343,23.069,16.465,23.78,16.383z M25.167,23.442c2.986-0.243,4.515,0.529,4.587,2.312
			c-0.072,1.704-0.357,3.084-0.853,4.138c-0.143,0.243-0.213,0.65-0.213,1.217c0,2.272,0.248,4.788,0.747,7.545
			c0.355,1.38,0.497,4.281,0.427,5.011c0,0.405-0.143,1.264-0.427,1.346c-0.285,0.08-0.463-0.042-0.533-0.365
			c-0.783-4.218-1.21-10.575-1.28-14.146c-0.498,0.325-1.317,0.608-2.453,0.852c-0.57,0.164-0.925,0.042-1.067-0.365
			c-0.213-0.243-0.285-0.487-0.213-0.73c0.07-0.243,0.283-0.365,0.64-0.365c1.635-0.162,2.595-0.365,2.88-0.609
			c0.355-0.162,0.427-0.445,0.213-0.852c-0.213-0.567-1.067-0.73-2.56-0.487c-0.357,0.082-0.605-0.08-0.747-0.487
			c-0.213-0.648-0.037-0.974,0.533-0.974c0.355,0.082,0.923,0.082,1.707,0c0.923,0,1.528,0.285,1.813,0.852
			c0.142,0.243,0.213,0.325,0.213,0.243l0.107-0.487c0.213-1.46-0.285-2.149-1.493-2.069c-0.997,0-1.672,0.042-2.027,0.122
			c-0.285,0.164-0.463-0.08-0.533-0.73C24.634,23.767,24.81,23.442,25.167,23.442z M26.561,15.646c1.92-0.08,3.12,1.549,3.192,3.658
			c0.07,1.542-0.392,2.434-1.387,2.677c-0.783,0.243-1.493,0.243-2.133,0c-0.357-0.162-0.463-0.405-0.32-0.73
			c0.213-0.323,0.533-0.487,0.96-0.487c0.07,0,0.142,0,0.213,0c0.355,0.082,0.64,0.082,0.853,0c0.64-0.08,0.923-0.567,0.853-1.46
			c-0.072-0.648-0.562-1.711-1.059-1.954c-0.427-0.162-0.783-0.162-1.067,0c-0.285,0-0.498-0.122-0.64-0.365
			c-0.213-0.405-0.285-0.688-0.213-0.852C25.885,15.889,26.135,15.728,26.561,15.646z"/>
	</g>
	<g>
		<path fill="#FFFFFF" stroke="#FFFFFF" stroke-miterlimit="10" d="M31.122,16.865c0.981-0.993,3.133-1.579,6.458-1.761
			c2.793,0,4.985,0.724,6.571,2.167c0.377,0.542,0.414,1.355,0.113,2.438c-0.227,0.813-0.34,1.943-0.34,3.387
			c-0.076,1.266-0.039,3.704,0.113,7.315c0.227,4.064,0.414,6.729,0.566,7.992c0.377,2.078-0.049,3.917-0.049,3.917
			s-0.379,1.388-0.906,1.117c-0.554-0.227-0.453-1.237-0.453-1.237s-0.253-7.634-0.404-11.247c0-0.451,0-0.948,0-1.49
			c-0.529-1.355-1.322-3.116-2.379-5.283c-0.227,0.542-0.566,1.266-1.02,2.167c-0.529,1.175-0.869,1.896-1.02,2.167
			c-0.379,0.453-0.719,0.453-1.02,0c-0.605-1.173-1.322-2.663-2.153-4.47c-0.906,2.349-1.813,4.246-2.719,5.689
			c0,2.709-0.113,5.283-0.34,7.721c-0.379,4.515-0.869,8.053-1.473,7.331c-0.453-0.362-0.416-3.944,0.113-7.466
			c0.453-2.618,0.68-5.96,0.68-10.024c0-1.985-0.189-4.153-0.566-6.502c-0.076-0.542-0.189-0.857-0.34-0.948
			c-0.227-0.271-0.303-0.631-0.227-1.084v-0.136C30.329,17.995,30.593,17.407,31.122,16.865z M32.255,20.658
			c0,1.175,0.074,3.207,0.227,6.096c-0.152-2.076-0.152-1.805,0,0.813c0.453-0.902,1.133-2.527,2.039-4.877
			c-0.076-0.18-0.266-0.542-0.566-1.084c-0.68-1.444-1.246-2.574-1.699-3.387v0.136c-0.076,0-0.113,0.047-0.113,0.135
			c-0.152,0.362-0.152,0.633,0,0.813c0.074,0,0.113,0.136,0.113,0.406C32.255,20.072,32.255,20.387,32.255,20.658z M36.673,16.73
			c-1.586,0.182-2.719,0.406-3.399,0.677c0.151,0.271,0.377,0.724,0.68,1.355c0.527,1.084,0.906,1.896,1.133,2.438
			C35.841,19.032,36.371,17.542,36.673,16.73z M38.146,26.483c0.074-0.089,0.151-0.271,0.227-0.542
			c0.453-1.264,0.906-2.347,1.36-3.251c-0.076-0.089-0.152-0.271-0.227-0.542c-1.059-1.714-1.625-2.845-1.699-3.386
			c-0.076-0.18-0.189-0.271-0.34-0.271c-0.076,0-0.152,0.091-0.227,0.271c-0.076,0.182-0.152,0.406-0.227,0.677
			c-0.303,0.633-0.719,1.672-1.246,3.116c0.151,0.362,0.414,0.948,0.793,1.761c0.453,0.995,0.754,1.672,0.906,2.032
			c0.074,0.271,0.188,0.406,0.34,0.406C37.881,26.754,37.994,26.665,38.146,26.483z M41.772,17.542
			c-0.906-0.451-2.115-0.722-3.625-0.813c0.377,0.633,1.094,2.123,2.153,4.47c0.227-0.451,0.49-1.128,0.793-2.032
			C41.393,18.446,41.62,17.904,41.772,17.542z M43.018,19.032c0.074-0.18,0-0.36-0.227-0.542l-1.813,4.199
			c0.301,0.724,0.754,1.672,1.36,2.845c0.227,0.453,0.377,0.768,0.453,0.948c0-0.722,0.037-1.761,0.113-3.116
			C43.055,20.658,43.092,19.214,43.018,19.032z"/>
	</g>
	<g display="none">
		
			<text transform="matrix(1 0 0 1 2.4514 69.9899)" display="inline" fill="#083290" stroke="#083290" stroke-width="0.25" stroke-miterlimit="10" font-family="'Li-Xuke'" font-size="8.2087" letter-spacing="7">网波股份</text>
	</g>
	
		<text transform="matrix(1 0 0 1 -12.4697 37.3603)" display="none" fill="#FFFFFF" stroke="#FFFFFF" stroke-miterlimit="10" font-family="'FZXZTFW--GB1-0'" font-size="26.6783" letter-spacing="-10">波网</text>
	
		<text transform="matrix(0.8245 0 0 1 21.1853 49.8775)" display="none" fill="#FFFFFF" stroke="#FFFFFF" stroke-miterlimit="10" font-family="'FZXZTFW--GB1-0'" font-size="32.357" letter-spacing="-12.129">网</text>
	
		<text transform="matrix(0.8765 0 0 1 9.8572 46.5974)" display="none" fill="#FFFFFF" stroke="#FFFFFF" stroke-miterlimit="10" font-family="'FZXZTFW--GB1-0'" font-size="31.1545" letter-spacing="-11.41">波</text>
</g>
</svg>
