<?xml version="1.0" encoding="utf-8"?>
<!-- Generator: Adobe Illustrator 18.1.0, SVG Export Plug-In . SVG Version: 6.00 Build 0)  -->
<svg version="1.1" id="图层_1" xmlns="http://www.w3.org/2000/svg" xmlns:xlink="http://www.w3.org/1999/xlink" x="0px" y="0px"
	 viewBox="82 -80 203.9 200" enable-background="new 82 -80 203.9 200" xml:space="preserve">
<path d="M213.3,89.8l0.2-15.4h35.6c5,0,11.9,0.8,14.9-1.3c4.4-3.1,3.1-12.9,3.1-20.3V-3.6c0-3.5,0.9-20.6-0.4-22.1H97.7v73.4
	c0,8.2-1.8,21.9,3.1,25.4c6.5,4.5,33.3-1,43.2,1.6v15.2c-17.9,0.1-43.1,2.9-53.4-5.1c-9-7.1-8.2-20.4-8.2-36.8v-79.4
	c0-12.1-1.6-28.2,2.7-36.3c7.6-14.5,24.7-12,46.3-12H250c4.8,0,10.4-0.5,14.5,0.4c20,4.7,18,22.5,18,46.8v67.8
	c0,10.6,1.7,29.9-0.9,38.3c-2.3,7.5-8.3,13.4-15.8,15.6c-4.4,1.3-11.2,0.7-16.7,0.7L213.3,89.8L213.3,89.8z M102.1-57.3
	c-7.5,3.2-8,16.7,3.1,16.7l5.3-0.4c2.9-1.3,4.9-9.6,2.4-13.6C111.3-57.5,106.9-57.5,102.1-57.3z M125.3-57.3
	c-7.7,3.2-8.2,16.7,3.1,16.7l5.3-0.4c2.8-1.3,4.8-8.8,2.7-13.2C134.8-57.5,130.4-57.5,125.3-57.3L125.3-57.3z M143.9-56.7l0.2,15.4
	l123-0.2v-15.2L143.9-56.7L143.9-56.7z M166.9,59.1c-7,0.1-19,1.6-22.5-2.2c-0.2-5.3,5.3-8.3,8-11.6l21.1-23.6
	c2.5-2.7,5-8.1,9.6-8.5c4.7,2.7,8.2,7.9,11.6,12l18.2,20.5c1.8,2.3,9,6.8,7.3,11.1c-2.2,4.9-16.3,1-22,2.5
	c0.4,32.9-18.7,49.7-44.3,56.9c-4,1.1-23.5,5.3-28.5,3.3v-0.2c5.6-0.9,10.6-3.7,15.1-5.8C160.2,104.4,167,88.1,166.9,59.1
	L166.9,59.1z"/>
</svg>
